<svg width="20" height="20" viewBox="0 0 20 20" fill="none" xmlns="http://www.w3.org/2000/svg">
<path d="M17.8906 3.75H10V2.73438C10 1.57129 9.05375 0.625 7.89062 0.625H2.10938C0.94625 0.625 0 1.57129 0 2.73438V4.6875V17.2656C0 18.4287 0.94625 19.375 2.10938 19.375H17.8906C19.0537 19.375 20 18.4287 20 17.2656V5.85938C20 4.69629 19.0537 3.75 17.8906 3.75ZM8.125 3.75H1.875V2.73438C1.875 2.60512 1.98012 2.5 2.10938 2.5H7.89062C8.01988 2.5 8.125 2.60512 8.125 2.73438V3.75ZM17.8125 16.25H16.875V17.1875C16.875 17.7053 16.4553 18.125 15.9375 18.125C15.4197 18.125 15 17.7053 15 17.1875V16.25H14.0625C13.5447 16.25 13.125 15.8303 13.125 15.3125C13.125 14.7947 13.5447 14.375 14.0625 14.375H15V13.4375C15 12.9197 15.4197 12.5 15.9375 12.5C16.4553 12.5 16.875 12.9197 16.875 13.4375V14.375H17.8125C18.3303 14.375 18.75 14.7947 18.75 15.3125C18.75 15.8303 18.3303 16.25 17.8125 16.25Z" fill="#DFEBFF"/>
</svg>
