<svg width="30" height="30" viewBox="0 0 30 30" fill="none" xmlns="http://www.w3.org/2000/svg">
<g clip-path="url(#clip0)">
<path d="M17 0H7.00002C5.62148 0 4.5 1.12148 4.5 2.50002V20.5C4.5 21.8785 5.62148 23 7.00002 23H16V22H7.00002C6.17303 22 5.50002 21.327 5.50002 20.5V2.50002C5.50002 1.67303 6.17303 1.00002 7.00002 1.00002H17C17.827 1.00002 18.5 1.67303 18.5 2.50002V17H19.5V2.50002C19.5 1.12148 18.3785 0 17 0Z" fill="#616161"/>
<path d="M24.2955 13.318L19.3905 7.188L18.6089 7.81302L23.5139 13.9425C24.1504 14.7375 24.5004 15.7365 24.4999 16.755V29H17.185C14.602 29 12.5 26.8985 12.5 24.315V22.5H11.5V24.315C11.5 27.4495 14.0505 30 17.185 30H25C25.2765 30 25.5 29.7765 25.5 29.5V16.7555C25.5005 15.5115 25.073 14.2905 24.2955 13.318Z" fill="#616161"/>
<path d="M12.9976 11.7915C13.3486 11.8015 13.6751 11.9475 13.9156 12.2025L20.6352 19.3425L21.3637 18.657L14.6431 11.5165C14.2186 11.067 13.6441 10.8095 13.0261 10.792C12.4016 10.771 11.8201 10.9985 11.3761 11.418C11.3706 11.4235 11.3306 11.4615 11.3256 11.467C10.4711 12.324 10.4136 13.669 11.1931 14.598L15.4996 19.683V21.23C15.4991 23.993 17.2367 26.4995 19.8242 27.4685L20.1751 26.532C17.9761 25.7085 16.4991 23.578 16.4996 21.23V19.5C16.4996 19.382 16.4576 19.267 16.3811 19.1765L11.9576 13.953C11.5151 13.426 11.5477 12.6605 12.0577 12.15C12.3126 11.909 12.6456 11.7895 12.9976 11.7915Z" fill="#616161"/>
<path d="M16.5 1.00002H15.5V13.5H16.5V1.00002Z" fill="#616161"/>
<path d="M14 16.5H13V22.5H14V16.5Z" fill="#616161"/>
<path d="M14 0.499977H13V11.5H14V0.499977Z" fill="#616161"/>
<path d="M8.00003 2.50003H7V9H8.00003V2.50003Z" fill="#616161"/>
<path d="M10.5 2.50003H9.5V6.50005H10.5V2.50003Z" fill="#616161"/>
<path d="M10.5 16.5H7.49998C7.224 16.5 7 16.7235 7 17V20C7 20.2765 7.224 20.5 7.49998 20.5H10.5C10.776 20.5 11 20.2765 11 20V17C11 16.7235 10.776 16.5 10.5 16.5ZM10 19.5H8.00002V17.5H10V19.5Z" fill="#616161"/>
</g>
<defs>
<clipPath id="clip0">
<rect width="30" height="30" fill="white"/>
</clipPath>
</defs>
</svg>
