<svg width="30" height="30" viewBox="0 0 30 30" fill="none" xmlns="http://www.w3.org/2000/svg">
<path d="M10.1074 25.6055C8.89582 25.6055 7.91016 26.5911 7.91016 27.8027C7.91016 29.0143 8.89582 30 10.1074 30C11.319 30 12.3047 29.0143 12.3047 27.8027C12.3047 26.5911 11.319 25.6055 10.1074 25.6055ZM10.1074 29.1211C9.38051 29.1211 8.78906 28.5296 8.78906 27.8027C8.78906 27.0758 9.38051 26.4844 10.1074 26.4844C10.8343 26.4844 11.4258 27.0758 11.4258 27.8027C11.4258 28.5296 10.8343 29.1211 10.1074 29.1211Z" fill="#616161"/>
<path d="M10.1074 28.2422C10.3501 28.2422 10.5469 28.0454 10.5469 27.8027C10.5469 27.56 10.3501 27.3633 10.1074 27.3633C9.86472 27.3633 9.66797 27.56 9.66797 27.8027C9.66797 28.0454 9.86472 28.2422 10.1074 28.2422Z" fill="#616161"/>
<path d="M25.166 28.2422C25.4087 28.2422 25.6055 28.0454 25.6055 27.8027C25.6055 27.56 25.4087 27.3633 25.166 27.3633C24.9233 27.3633 24.7266 27.56 24.7266 27.8027C24.7266 28.0454 24.9233 28.2422 25.166 28.2422Z" fill="#616161"/>
<path d="M25.166 25.6055C23.9544 25.6055 22.9688 26.5911 22.9688 27.8027C22.9688 29.0143 23.9544 30 25.166 30C26.3776 30 27.3633 29.0143 27.3633 27.8027C27.3633 26.5911 26.3776 25.6055 25.166 25.6055ZM25.166 29.1211C24.4391 29.1211 23.8477 28.5296 23.8477 27.8027C23.8477 27.0758 24.4391 26.4844 25.166 26.4844C25.8929 26.4844 26.4844 27.0758 26.4844 27.8027C26.4844 28.5296 25.8929 29.1211 25.166 29.1211Z" fill="#616161"/>
<path d="M7.2566 21.2668L10.4554 19.4531H17.6367C18.6978 19.4531 19.5857 18.697 19.7899 17.6953H24.3666C25.773 17.6953 26.9985 16.7437 27.3469 15.3813L29.9863 5.0601C30.0199 4.92855 29.9909 4.78893 29.9076 4.6817C29.8243 4.57447 29.6963 4.51172 29.5605 4.51172H7.9841L7.75998 3.63545C7.2133 1.49496 5.28727 0 3.07617 0H1.31836C0.591445 0 0 0.591445 0 1.31836C0 2.04527 0.591445 2.63672 1.31836 2.63672H3.07617C4.08147 2.63672 4.95697 3.31582 5.20535 4.2883L8.58059 17.4851L5.95676 18.9728C4.99318 19.5183 4.39453 20.5443 4.39453 21.6504C4.39453 23.3466 5.77453 24.7266 7.4707 24.7266H26.9238C27.6507 24.7266 28.2422 24.1351 28.2422 23.4082C28.2422 22.6813 27.6507 22.0898 26.9238 22.0898H7.4707C7.22836 22.0898 7.03125 21.8927 7.03125 21.6504C7.03125 21.4925 7.1175 21.3456 7.2566 21.2668ZM23.5455 12.7148H20.845L21.0097 9.49219H24.0399L23.5455 12.7148ZM24.9291 9.49219H27.9457L27.1216 12.7148H24.4347L24.9291 9.49219ZM23.4106 13.5938L22.9162 16.8164H20.6353L20.8 13.5938H23.4106ZM19.9649 12.7148H17.2598L17.0949 9.49219H20.1296L19.9649 12.7148ZM21.0547 8.61328L21.2194 5.39062H24.6691L24.1747 8.61328H21.0547ZM20.1746 8.61328H17.0499L16.885 5.39062H20.3394L20.1746 8.61328ZM16.1699 8.61328H14.4304C14.1877 8.61328 13.991 8.80998 13.991 9.05273C13.991 9.29549 14.1877 9.49219 14.4304 9.49219H16.2148L16.3797 12.7148H13.6792L12.5552 5.39062H16.0049L16.1699 8.61328ZM12.7901 12.7148H10.0821L9.25787 9.49219H12.2955L12.7901 12.7148ZM12.925 13.5938L13.4196 16.8164H11.1312L10.3069 13.5938H12.925ZM14.3087 16.8164L13.8141 13.5938H16.4247L16.5896 16.8164H14.3087ZM17.4697 16.8164L17.3048 13.5938H19.9199L19.7552 16.8164H17.4697ZM26.4954 15.1635C26.2465 16.1367 25.3712 16.8164 24.3666 16.8164H23.8054L24.2998 13.5938H26.8968L26.4954 15.1635ZM28.1705 8.61328H25.0639L25.5584 5.39062H28.9946L28.1705 8.61328ZM11.6661 5.39062L12.1607 8.61328H9.03316L8.20893 5.39062H11.6661ZM3.07617 1.75781H1.31836C1.07602 1.75781 0.878906 1.5607 0.878906 1.31836C0.878906 1.07602 1.07602 0.878906 1.31836 0.878906H3.07617C3.9999 0.878906 4.86234 1.1983 5.5452 1.7434L4.91865 2.37C4.40051 1.98287 3.75996 1.75781 3.07617 1.75781ZM7.4707 22.9688H26.9238C27.1662 22.9688 27.3633 23.1659 27.3633 23.4082C27.3633 23.6505 27.1662 23.8477 26.9238 23.8477H7.4707C6.2591 23.8477 5.27344 22.862 5.27344 21.6504C5.27344 20.8604 5.70123 20.1274 6.39006 19.7374L9.30633 18.0839C9.47883 17.9861 9.56443 17.7848 9.51527 17.5927L6.05684 4.07068C5.95471 3.67072 5.77641 3.30662 5.54045 2.99127L6.16717 2.36455C6.50918 2.7924 6.76617 3.29584 6.90844 3.85307L10.3642 17.3648C10.414 17.5593 10.5892 17.6954 10.79 17.6954H18.8798C18.6984 18.2069 18.2097 18.5743 17.6367 18.5743H10.3395C10.2635 18.5743 10.1888 18.594 10.1227 18.6315L6.82336 20.5022C6.40951 20.7363 6.15234 21.1764 6.15234 21.6504C6.15234 22.3773 6.74379 22.9688 7.4707 22.9688Z" fill="#616161"/>
</svg>
