<svg width="18" height="18" viewBox="0 0 18 18" fill="none" xmlns="http://www.w3.org/2000/svg">
<path d="M6.3755 17.8062C7.5804 17.8062 8.55716 16.8295 8.55716 15.6246C8.55716 14.4197 7.5804 13.4429 6.3755 13.4429C5.17061 13.4429 4.19385 14.4197 4.19385 15.6246C4.19385 16.8295 5.17061 17.8062 6.3755 17.8062Z" fill="white"/>
<path d="M13.3655 13.4217C12.1548 13.3026 11.0767 14.1875 10.9575 15.3982C10.8384 16.609 11.7233 17.6871 12.934 17.8062C13.0775 17.8203 13.2221 17.8203 13.3655 17.8062C14.5763 17.6871 15.4612 16.609 15.342 15.3982C15.2391 14.3522 14.4115 13.5246 13.3655 13.4217Z" fill="white"/>
<path d="M17.8557 5.11873C17.7473 4.95644 17.5637 4.86063 17.3685 4.86456H14.9539V4.8222C14.9541 2.26031 12.8774 0.183356 10.3155 0.18319C7.75366 0.183025 5.67671 2.25969 5.67655 4.82158C5.67655 4.82178 5.67655 4.82199 5.67655 4.8222V4.86456H3.87615L3.2619 2.06865C3.19368 1.78423 2.94012 1.58313 2.64764 1.58148H0V2.85235H2.1393L4.10914 11.8967C4.16114 12.1941 4.42156 12.4096 4.72339 12.4051H15.8011C16.0936 12.4034 16.3471 12.2023 16.4154 11.9179L17.9828 5.64826C18.0288 5.46156 17.9814 5.26419 17.8557 5.11873ZM10.3152 8.19001C8.45525 8.19001 6.94741 6.68217 6.94741 4.8222C6.94741 2.96223 8.45525 1.45439 10.3152 1.45439C12.1752 1.45439 13.683 2.96223 13.683 4.8222C13.6715 6.67737 12.1704 8.17842 10.3152 8.19001Z" fill="white"/>
<path d="M9.80671 4.88573L8.64175 3.69959L7.73096 4.58919L9.34072 6.22014C9.45805 6.33986 9.6179 6.40837 9.78553 6.41077C9.95096 6.41888 10.1122 6.35744 10.2303 6.24132L12.8992 3.72077L12.0307 2.7888L9.80671 4.88573Z" fill="white"/>
</svg>
