<svg width="15" height="13" viewBox="0 0 15 13" fill="none" xmlns="http://www.w3.org/2000/svg">
<path d="M0.640625 7.25961C0.677855 7.22691 1.06656 7.42784 1.1067 7.44552C1.50145 7.61911 1.88364 7.82015 2.25012 8.04749C3.19914 8.62827 3.99493 9.42825 4.57071 10.3803C5.03923 11.1605 5.39396 12.6103 6.52644 12.6103C7.06895 12.6103 7.68558 12.6278 8.0979 12.214C8.6019 11.7075 8.61097 10.9684 8.76676 10.3146C9.5387 7.23087 11.0129 4.36742 13.074 1.94735C13.2006 1.79599 13.3292 1.64614 13.4595 1.49792C13.7242 1.20043 14.005 0.917713 14.3006 0.650937C14.3408 0.614521 14.4103 0.539945 14.4933 0.454781C14.5693 0.377296 14.5909 0.261534 14.548 0.161828C14.5052 0.0621213 14.4063 -0.00186772 14.2977 -6.22447e-06C12.5943 0.0540936 8.5414 0.945752 6.25885 7.79467C6.25885 7.79467 2.78088 5.38682 0.640625 7.25961Z" fill="#4FBA6F"/>
</svg>
