<svg width="19" height="19" viewBox="0 0 19 19" fill="none" xmlns="http://www.w3.org/2000/svg">
<path d="M17.7212 0.015625H7.82736C7.63632 0.015625 7.45512 0.0580352 7.29219 0.133445C6.8537 0.336417 6.54858 0.780334 6.54858 1.29444V1.93382C6.87829 1.93382 14.2004 1.93382 14.5239 1.93382C15.9414 1.93382 17.0946 3.08702 17.0946 4.50451C17.0946 4.87609 17.0946 12.0747 17.0946 12.4433V12.4671H17.7213C18.4228 12.4671 19.0001 11.8962 19.0001 11.1884V1.29444C19 0.589302 18.4264 0.015625 17.7212 0.015625Z" fill="white"/>
<path d="M14.524 3.22559H4.63009C3.92495 3.22559 3.35132 3.79926 3.35132 4.5044V5.24113C3.89788 5.24113 10.9388 5.24113 11.1728 5.24113C12.5903 5.24113 13.7435 6.39433 13.7435 7.81181C13.7435 8.06536 13.7435 15.1066 13.7435 15.6771H14.524C15.2291 15.6771 15.8028 15.1034 15.8028 14.3983V4.5044C15.8028 3.79926 15.2291 3.22559 14.524 3.22559Z" fill="white"/>
<path d="M11.1727 6.5332H1.27881C0.573677 6.5332 0 7.10688 0 7.81202V17.7059C0 18.411 0.573677 18.9847 1.27881 18.9847H11.1727C11.8778 18.9847 12.4515 18.411 12.4515 17.7059V7.81202C12.4515 7.10688 11.8778 6.5332 11.1727 6.5332Z" fill="white"/>
</svg>
