<svg width="30" height="30" viewBox="0 0 30 30" fill="none" xmlns="http://www.w3.org/2000/svg">
<g clip-path="url(#clip0)">
<path d="M26.875 4.99997H3.12498C1.4025 4.99997 0 6.40247 0 8.12501V21.875C0 23.5975 1.4025 25 3.12498 25H26.875C28.5974 25 29.9999 23.5975 29.9999 21.875V8.12501C30 6.40247 28.5975 4.99997 26.875 4.99997ZM28.75 21.875C28.75 22.9087 27.9088 23.75 26.875 23.75H3.12498C2.09121 23.75 1.24998 22.9087 1.24998 21.875V8.12501C1.24998 7.09124 2.09121 6.25001 3.12498 6.25001H26.875C27.9087 6.25001 28.75 7.09124 28.75 8.12501V21.875H28.75Z" fill="#616161"/>
<path d="M29.375 8.74997H0.62502C0.28002 8.74997 0 9.02999 0 9.37499V13.125C0 13.47 0.28002 13.75 0.62502 13.75H29.375C29.72 13.75 30.0001 13.47 30.0001 13.125V9.37499C30 9.02999 29.72 8.74997 29.375 8.74997ZM28.75 12.5H1.24998V9.99995H28.75V12.5H28.75Z" fill="#616161"/>
<path d="M11.875 17.5H4.37502C4.03002 17.5 3.75 17.78 3.75 18.125C3.75 18.47 4.03002 18.75 4.37502 18.75H11.875C12.22 18.75 12.5 18.47 12.5 18.125C12.5 17.78 12.22 17.5 11.875 17.5Z" fill="#616161"/>
<path d="M11.875 20H4.37502C4.03002 20 3.75 20.28 3.75 20.625C3.75 20.97 4.03002 21.25 4.37502 21.25H11.875C12.22 21.25 12.5 20.97 12.5 20.625C12.5 20.28 12.22 20 11.875 20Z" fill="#616161"/>
<path d="M24.375 16.25H23.125C22.0912 16.25 21.25 17.0912 21.25 18.125V19.375C21.25 20.4087 22.0912 21.25 23.125 21.25H24.375C25.4088 21.25 26.25 20.4087 26.25 19.375V18.125C26.25 17.0913 25.4088 16.25 24.375 16.25ZM25 19.375C25 19.72 24.72 20 24.375 20H23.125C22.78 20 22.5 19.72 22.5 19.375V18.125C22.5 17.78 22.78 17.5 23.125 17.5H24.375C24.72 17.5 25 17.78 25 18.125V19.375Z" fill="#616161"/>
</g>
<defs>
<clipPath id="clip0">
<rect width="30" height="30" fill="white"/>
</clipPath>
</defs>
</svg>
