<svg width="15" height="16" viewBox="0 0 15 16" fill="none" xmlns="http://www.w3.org/2000/svg">
<g clip-path="url(#clip0)">
<path d="M5.9761 1.73232H8.37276V2.1356H9.23827V1.67587C9.23838 1.22971 8.87559 0.866699 8.42965 0.866699H5.91921C5.47327 0.866699 5.11047 1.22971 5.11047 1.67587V2.1356H5.9761V1.73232Z" fill="#9C9C9C"/>
<path d="M11.237 5.56494H3.11158C2.88894 5.56494 2.71367 5.75487 2.73161 5.97686L3.41092 14.3766C3.44877 14.8456 3.8399 15.2067 4.3098 15.2067H10.0387C10.5086 15.2067 10.8997 14.8456 10.9375 14.3765L11.6168 5.97686C11.6349 5.75487 11.4596 5.56494 11.237 5.56494ZM5.07904 14.3108C5.06996 14.3113 5.06087 14.3117 5.0519 14.3117C4.82499 14.3117 4.63452 14.135 4.6204 13.9054L4.1947 7.00965C4.18004 6.77104 4.36155 6.56568 4.60005 6.55102C4.8378 6.53658 5.04403 6.71765 5.05869 6.95637L5.48428 13.8522C5.49905 14.0908 5.31754 14.296 5.07904 14.3108ZM7.61191 13.8788C7.61191 14.1178 7.41815 14.3115 7.17909 14.3115C6.94004 14.3115 6.74628 14.1178 6.74628 13.8788V6.98296C6.74628 6.74391 6.94004 6.55015 7.17909 6.55015C7.41804 6.55015 7.61191 6.74391 7.61191 6.98296V13.8788ZM10.1539 7.00845L9.74741 13.9042C9.73395 14.1342 9.54315 14.3115 9.3158 14.3115C9.30727 14.3115 9.29862 14.3113 9.28998 14.3109C9.05137 14.2968 8.86931 14.092 8.88343 13.8534L9.28976 6.95747C9.30377 6.71885 9.50792 6.5368 9.74719 6.55091C9.98581 6.56492 10.1679 6.76983 10.1539 7.00845Z" fill="#9C9C9C"/>
<path d="M12.7341 4.22917L12.4499 3.37712C12.375 3.1525 12.1647 3.00098 11.9278 3.00098H2.4216C2.18485 3.00098 1.97446 3.1525 1.89962 3.37712L1.61539 4.22917C1.56057 4.3935 1.63191 4.56111 1.76505 4.6447C1.81932 4.67872 1.88354 4.69918 1.95411 4.69918H12.3954C12.466 4.69918 12.5303 4.67872 12.5845 4.64459C12.7176 4.561 12.789 4.39339 12.7341 4.22917Z" fill="#9C9C9C"/>
</g>
<defs>
<clipPath id="clip0">
<rect width="14.3401" height="14.3401" fill="white" transform="translate(0 0.866699)"/>
</clipPath>
</defs>
</svg>
