<svg width="24" height="20" viewBox="0 0 24 20" fill="none" xmlns="http://www.w3.org/2000/svg">
<path d="M11.538 0.000367165C11.3409 0.000367165 11.1524 0.0811367 11.0169 0.223444L5.96878 5.51191C5.53128 5.9696 5.85628 6.73114 6.48993 6.73114H9.13417V12.26C9.13417 12.9225 9.67359 13.4619 10.3361 13.4619H12.7399C13.4024 13.4619 13.9419 12.9225 13.9419 12.26V6.73114H16.5861C17.2197 6.73114 17.5447 5.9696 17.1072 5.51191L12.0592 0.223444C11.9236 0.0811367 11.7351 0.000367165 11.538 0.000367165Z" fill="#DFEBFF"/>
<path d="M21.3942 18.8462H1.68269C0.754808 18.8462 0 19.0726 0 19.351V19.4952C0 19.7736 0.754808 20 1.68269 20H21.3942C22.3221 20 23.0769 19.7736 23.0769 19.4952V19.351C23.0769 19.0726 22.3221 18.8462 21.3942 18.8462Z" fill="#DFEBFF"/>
</svg>
