<svg width="15" height="15" viewBox="0 0 15 15" fill="none" xmlns="http://www.w3.org/2000/svg">
<g clip-path="url(#clip0)">
<path d="M7.16979 9.55989C7.0473 9.55989 6.93019 9.5097 6.84594 9.42127L3.70904 6.135C3.43717 5.85058 3.63913 5.37736 4.03288 5.37736H5.67602V1.94171C5.67602 1.53002 6.01122 1.19482 6.4229 1.19482H7.91667C8.32835 1.19482 8.66355 1.53002 8.66355 1.94171V5.37736H10.3067C10.7004 5.37736 10.9024 5.85058 10.6305 6.135L7.49363 9.42127C7.40939 9.5097 7.29227 9.55989 7.16979 9.55989Z" fill="#9C9C9C"/>
<path d="M13.2945 14.3401H1.04563C0.469041 14.3401 0 14.1993 0 14.0264V13.9367C0 13.7638 0.469041 13.623 1.04563 13.623H13.2945C13.8711 13.623 14.3401 13.7638 14.3401 13.9367V14.0264C14.3401 14.1993 13.8711 14.3401 13.2945 14.3401Z" fill="#9C9C9C"/>
</g>
<defs>
<clipPath id="clip0">
<rect width="14.3401" height="14.3401" fill="white"/>
</clipPath>
</defs>
</svg>
