<svg width="15" height="15" viewBox="0 0 15 15" fill="none" xmlns="http://www.w3.org/2000/svg">
<g clip-path="url(#clip0)">
<path d="M3.37288 8.70703L3.1994 11.7423L5.92996 10.6246L3.37288 8.70703Z" fill="#9C9C9C"/>
<path d="M11.9734 3.2637C12.218 2.94797 12.3259 2.5474 12.2731 2.15145C12.2204 1.75563 12.0113 1.39727 11.6925 1.15661L11.0486 0.670114C10.3944 0.179413 9.46788 0.30348 8.96578 0.948653L8.53711 1.50342L11.5596 3.79798L11.9734 3.2637Z" fill="#9C9C9C"/>
<path d="M11.1341 4.34737L8.11213 2.05322L3.54297 7.96554L6.57229 10.2376L11.1341 4.34737Z" fill="#9C9C9C"/>
<path d="M14.6525 13.9595H0.347496C0.155559 13.9595 0 14.115 0 14.307C0 14.4989 0.155559 14.6545 0.347496 14.6545H14.6525C14.8444 14.6545 15 14.4989 15 14.307C15 14.115 14.8444 13.9595 14.6525 13.9595Z" fill="#9C9C9C"/>
</g>
<defs>
<clipPath id="clip0">
<rect width="15" height="15" fill="white"/>
</clipPath>
</defs>
</svg>
