<svg width="22" height="22" viewBox="0 0 22 22" fill="none" xmlns="http://www.w3.org/2000/svg">
<g clip-path="url(#clip0)">
<path d="M15.982 9.52362V5.36018C15.982 5.24101 15.927 5.13091 15.8491 5.04379L11.1813 0.142166C11.0942 0.0505218 10.9703 0 10.8466 0H3.44589C2.07962 0 0.988281 1.11417 0.988281 2.48061V16.4748C0.988281 17.8413 2.07962 18.9371 3.44589 18.9371H9.28763C10.3926 20.7712 12.401 22 14.6889 22C18.1645 22 21.0028 19.1755 21.0028 15.6953C21.0075 12.6553 18.8248 10.1151 15.982 9.52362ZM11.3051 1.60948L14.4368 4.90616H12.4055C11.8003 4.90616 11.3051 4.40648 11.3051 3.80122V1.60948ZM3.44589 18.02C2.58853 18.02 1.9054 17.3322 1.9054 16.4748V2.48061C1.9054 1.61855 2.58853 0.917114 3.44589 0.917114H10.388V3.80122C10.388 4.91539 11.2914 5.82327 12.4055 5.82327H15.0649V9.40428C14.9274 9.39975 14.8173 9.38599 14.6982 9.38599C13.0979 9.38599 11.6261 10.0005 10.5164 10.9634H4.69316C4.44089 10.9634 4.2346 11.1697 4.2346 11.4218C4.2346 11.6741 4.44089 11.8804 4.69316 11.8804H9.6636C9.33798 12.3389 9.06741 12.7975 8.8566 13.3018H4.69316C4.44089 13.3018 4.2346 13.5081 4.2346 13.7604C4.2346 14.0125 4.44089 14.219 4.69316 14.219H8.5585C8.44386 14.6775 8.38428 15.1864 8.38428 15.6953C8.38428 16.5206 8.54474 17.3369 8.8336 18.0247H3.44589V18.02ZM14.6936 21.0876C11.7224 21.0876 9.30592 18.6711 9.30592 15.6999C9.30592 12.7287 11.7177 10.3122 14.6936 10.3122C17.6694 10.3122 20.0812 12.7287 20.0812 15.6999C20.0812 18.6711 17.6649 21.0876 14.6936 21.0876Z" fill="#2E6DDE"/>
<path d="M4.69293 9.58313H9.33775C9.59003 9.58313 9.79631 9.37668 9.79631 9.12457C9.79631 8.8723 9.59003 8.66602 9.33775 8.66602H4.69293C4.44066 8.66602 4.23438 8.8723 4.23438 9.12457C4.23438 9.37668 4.44066 9.58313 4.69293 9.58313Z" fill="#2E6DDE"/>
<path d="M15.0195 12.3161C14.9323 12.2245 14.8132 12.1694 14.6848 12.1694C14.5564 12.1694 14.4372 12.2245 14.3501 12.3161L11.663 15.2002C11.4888 15.3837 11.5026 15.6771 11.686 15.8468C11.8695 16.021 12.1674 16.0072 12.3416 15.824L14.24 13.7927V18.7997C14.24 19.052 14.4463 19.2583 14.6985 19.2583C14.9506 19.2583 15.1571 19.052 15.1571 18.7997V13.7927L17.0415 15.824C17.1333 15.9201 17.2525 15.9707 17.3764 15.9707C17.4863 15.9707 17.5964 15.9294 17.688 15.8468C17.8715 15.6726 17.8853 15.3837 17.711 15.2002L15.0195 12.3161Z" fill="#2E6DDE"/>
</g>
<defs>
<clipPath id="clip0">
<rect width="22" height="22" fill="white"/>
</clipPath>
</defs>
</svg>
