<svg width="20" height="20" viewBox="0 0 20 20" fill="none" xmlns="http://www.w3.org/2000/svg">
<path d="M16.2745 5.97637H9.05882L7.62353 4.27048C7.57524 4.21244 7.50289 4.1799 7.42745 4.18225H1.60588C0.717059 4.18872 0 4.91107 0 5.7999V16.2921C0.00107843 17.1839 0.723823 17.9067 1.61569 17.9077H16.2745C17.1664 17.9067 17.8891 17.1839 17.8902 16.2921V7.59205C17.8891 6.70019 17.1664 5.97744 16.2745 5.97637Z" fill="#424045"/>
<path d="M18.3939 3.88652H11.1762L9.74094 2.18064C9.69265 2.1226 9.6203 2.09005 9.54486 2.0924H3.72525C2.91878 2.09373 2.23682 2.68951 2.12721 3.48848H7.43505C7.71339 3.4878 7.97765 3.61064 8.15662 3.82378L9.38211 5.28064H16.2743C17.549 5.2828 18.5819 6.31569 18.5841 7.59044V15.8022C19.3923 15.7014 19.9991 15.0148 19.9998 14.2002V5.50025C19.9977 4.61294 19.2811 3.89299 18.3939 3.88652Z" fill="#424045"/>
</svg>
