<svg width="20" height="20" viewBox="0 0 20 20" fill="none" xmlns="http://www.w3.org/2000/svg">
<path d="M17.8571 2.85742H2.14286C0.959388 2.85742 0 3.81681 0 5.00028V15.0003C0 16.1837 0.959388 17.1431 2.14286 17.1431H17.8571C19.0406 17.1431 20 16.1837 20 15.0003V5.00028C20 3.81681 19.0406 2.85742 17.8571 2.85742ZM18.5714 11.1331L14.0764 6.63814C13.7975 6.35927 13.3453 6.35927 13.0664 6.63814L7.14287 12.5617L4.79071 10.2095C4.5118 9.93064 4.05962 9.93064 3.78072 10.2095L1.42856 12.5617V5.00028C1.42856 4.60577 1.74835 4.28598 2.14286 4.28598H17.8571C18.2516 4.28598 18.5714 4.60577 18.5714 5.00028V11.1331H18.5714Z" fill="#2F855A"/>
<path d="M6.42835 10.0001C7.61181 10.0001 8.5712 9.04068 8.5712 7.85721C8.5712 6.67374 7.61181 5.71436 6.42835 5.71436C5.24488 5.71436 4.28549 6.67374 4.28549 7.85721C4.28549 9.04068 5.24488 10.0001 6.42835 10.0001Z" fill="#2F855A"/>
</svg>
