<svg width="22" height="22" viewBox="0 0 22 22" fill="none" xmlns="http://www.w3.org/2000/svg">
<g clip-path="url(#clip0)">
<path d="M21.3116 10.313H12.6035C12.224 10.313 11.916 10.005 11.916 9.62547C11.916 9.24598 12.224 8.93799 12.6035 8.93799H21.3116C21.6911 8.93799 21.9991 9.24598 21.9991 9.62547C21.9991 10.005 21.6911 10.313 21.3116 10.313Z" fill="#4680E8"/>
<path d="M17.8748 13.7504C17.6987 13.7504 17.5228 13.6834 17.3889 13.5488C17.1204 13.2801 17.1204 12.8447 17.3889 12.5762L20.3406 9.6247L17.3889 6.67303C17.1204 6.40449 17.1204 5.96911 17.3889 5.70056C17.6576 5.43184 18.093 5.43184 18.3616 5.70056L21.7989 9.13796C22.0675 9.4065 22.0675 9.84188 21.7989 10.1104L18.3616 13.5478C18.2268 13.6834 18.0509 13.7504 17.8748 13.7504Z" fill="#4680E8"/>
<path d="M7.33316 22.0003C7.13695 22.0003 6.95082 21.9728 6.76485 21.915L1.2484 20.0772C0.497818 19.815 0 19.1156 0 18.3338V1.83431C0 0.823232 0.822255 0.000976562 1.83333 0.000976562C2.02937 0.000976562 2.21551 0.0285026 2.40164 0.08624L7.91792 1.9241C8.66868 2.18627 9.16633 2.88567 9.16633 3.66747V20.167C9.16633 21.178 8.34424 22.0003 7.33316 22.0003ZM1.83333 1.37593C1.58123 1.37593 1.37496 1.58221 1.37496 1.83431V18.3338C1.37496 18.529 1.50604 18.7104 1.69302 18.7756L7.18361 20.6052C7.22306 20.618 7.27442 20.6253 7.33316 20.6253C7.58526 20.6253 7.79137 20.4191 7.79137 20.167V3.66747C7.79137 3.47227 7.66028 3.29084 7.47331 3.22571L1.98271 1.39607C1.94327 1.38332 1.89191 1.37593 1.83333 1.37593Z" fill="#4680E8"/>
<path d="M13.9783 7.33365C13.5988 7.33365 13.2909 7.02566 13.2909 6.64617V2.5213C13.2909 1.88971 12.7768 1.37545 12.1452 1.37545H1.83299C1.4535 1.37545 1.14551 1.06746 1.14551 0.687967C1.14551 0.308477 1.4535 0.000488281 1.83299 0.000488281H12.1452C13.5357 0.000488281 14.6658 1.13073 14.6658 2.5213V6.64617C14.6658 7.02566 14.3578 7.33365 13.9783 7.33365Z" fill="#4680E8"/>
<path d="M12.1461 19.2501H8.47947C8.09998 19.2501 7.79199 18.9422 7.79199 18.5627C7.79199 18.1832 8.09998 17.8752 8.47947 17.8752H12.1461C12.7777 17.8752 13.2918 17.3609 13.2918 16.7293V12.6045C13.2918 12.225 13.5998 11.917 13.9793 11.917C14.3588 11.917 14.6668 12.225 14.6668 12.6045V16.7293C14.6668 18.1199 13.5367 19.2501 12.1461 19.2501Z" fill="#4680E8"/>
</g>
<defs>
<clipPath id="clip0">
<rect width="22" height="22" fill="white"/>
</clipPath>
</defs>
</svg>
