<svg width="18" height="22" viewBox="0 0 18 22" fill="none" xmlns="http://www.w3.org/2000/svg">
<path d="M15.0038 11.6886C14.9751 8.90076 17.2768 7.56661 17.3788 7.49966C16.0861 5.61081 14.0745 5.35099 13.3556 5.3223C11.6453 5.14696 10.0147 6.32969 9.14435 6.32969C8.27723 6.32969 6.93511 5.34621 5.51488 5.37171C3.64674 5.4004 1.92685 6.4588 0.964086 8.12928C-0.975778 11.4958 0.466767 16.4817 2.35722 19.2154C3.28172 20.5511 4.38475 22.051 5.83048 21.9984C7.22361 21.9426 7.74962 21.0962 9.43445 21.0962C11.1193 21.0962 11.5927 21.9984 13.0655 21.9713C14.5654 21.9426 15.5139 20.6085 16.4304 19.2696C17.492 17.7186 17.9287 16.2155 17.9558 16.1406C17.9208 16.1215 15.0341 15.0168 15.0038 11.6886Z" fill="#414141"/>
<path d="M12.2333 3.51311C13 2.58383 13.5197 1.28952 13.3778 0C12.27 0.0446312 10.9326 0.734821 10.1373 1.6657C9.42475 2.48978 8.80469 3.80481 8.97046 5.06883C10.2042 5.16606 11.4666 4.44081 12.2333 3.51311Z" fill="#414141"/>
</svg>
