<svg width="18" height="21" viewBox="0 0 18 21" fill="none" xmlns="http://www.w3.org/2000/svg">
<path d="M14.2425 15.5138C14.2425 15.9736 13.8716 16.3468 13.4109 16.3468H3.77931C3.3195 16.3468 2.94727 15.9737 2.94727 15.5138V6.90878C5.47198 6.89955 11.3618 6.89955 14.2425 6.90878V15.5138V15.5138Z" fill="#414141"/>
<path d="M6.51489 2.49685C6.56242 2.59014 6.52632 2.70675 6.43175 2.75514C6.33803 2.80266 6.22146 2.76528 6.17394 2.67156L4.95646 0.298657C4.90808 0.204082 4.94675 0.0896566 5.04051 0.0408441C5.13422 -0.00758164 5.24994 0.0298442 5.29832 0.124032L6.51494 2.49694L6.51489 2.49685Z" fill="#414141"/>
<path d="M10.9494 2.59677C10.8966 2.68872 10.7796 2.72039 10.6872 2.66586C10.5956 2.61391 10.5644 2.49691 10.6181 2.40491L11.9513 0.0962023C12.0041 0.00467892 12.122 -0.0278484 12.2126 0.0262492C12.305 0.0785851 12.3362 0.196105 12.2835 0.287155L10.9494 2.59672L10.9494 2.59677Z" fill="#414141"/>
<path d="M17.1844 13.1805C17.1844 13.8498 16.6423 14.3932 15.9718 14.3932C15.3012 14.3932 14.7578 13.8502 14.7578 13.1805V7.87369C14.7578 7.20312 15.3008 6.6615 15.9718 6.6615C16.6419 6.6615 17.1844 7.20316 17.1844 7.87369V13.1805Z" fill="#414141"/>
<path d="M2.42571 13.1805C2.42571 13.8498 1.8819 14.3932 1.21352 14.3932C0.542524 14.3932 0 13.8502 0 13.1805V7.87369C0 7.20312 0.542051 6.6615 1.21352 6.6615C1.8819 6.6615 2.42571 7.20316 2.42571 7.87369V13.1805Z" fill="#414141"/>
<path d="M7.70692 19.2539C7.70692 19.9231 7.16397 20.4665 6.49254 20.4665C5.8233 20.4665 5.28125 19.9236 5.28125 19.2539V13.947C5.28125 13.2782 5.8233 12.7335 6.49254 12.7335C7.16354 12.7335 7.70692 13.2782 7.70692 13.947V19.2539Z" fill="#414141"/>
<path d="M11.9129 19.2539C11.9129 19.9231 11.3699 20.4665 10.6989 20.4665C10.0297 20.4665 9.48633 19.9236 9.48633 19.2539V13.947C9.48633 13.2782 10.0293 12.7335 10.6989 12.7335C11.3695 12.7335 11.9129 13.2782 11.9129 13.947V19.2539Z" fill="#414141"/>
<path d="M8.59434 1.23853C5.64458 1.23853 3.21534 3.48343 2.89062 6.36895H14.2976C13.9738 3.48343 11.5459 1.23857 8.59434 1.23857V1.23853ZM6.02077 4.3489C5.75763 4.3489 5.54511 4.13728 5.54511 3.87504C5.54511 3.61371 5.75763 3.40204 6.02077 3.40204C6.28125 3.40204 6.49377 3.61367 6.49377 3.87504C6.49377 4.13728 6.28125 4.3489 6.02077 4.3489ZM11.178 4.3489C10.9158 4.3489 10.7032 4.13728 10.7032 3.87504C10.7032 3.61371 10.9158 3.40204 11.178 3.40204C11.4411 3.40204 11.6519 3.61367 11.6519 3.87504C11.6519 4.13728 11.4411 4.3489 11.178 4.3489Z" fill="#414141"/>
</svg>
