<svg xmlns="http://www.w3.org/2000/svg" width="1200" height="736" fill="none"><path d="M1200 0H0v368h1200V0z" fill="#171544"/><path d="M1200 368H0v368h1200V368z" fill="url(#paint0_linear)"/><path d="M25.133 83.455c3.039 0 5.503-2.497 5.503-5.577S28.172 72.3 25.133 72.3c-3.04 0-5.503 2.497-5.503 5.578 0 3.08 2.464 5.577 5.503 5.577zm215.888 201.04c3.039 0 5.503-2.498 5.503-5.578s-2.464-5.578-5.503-5.578c-3.04 0-5.503 2.498-5.503 5.578s2.463 5.578 5.503 5.578z" fill="#512670"/><path fill-rule="evenodd" clip-rule="evenodd" d="M290.361 60.741c-1.353 0-2.446-1.11-2.446-2.479 0-6.834 5.486-12.395 12.229-12.395 1.352 0 2.446 1.11 2.446 2.48 0 1.368-1.094 2.478-2.446 2.478-4.045 0-7.337 3.337-7.337 7.437 0 1.368-1.094 2.479-2.446 2.479zm-10.089-9.296c-1.353 0-2.446-1.11-2.446-2.479 0-1.368 1.093-2.479 2.446-2.479 4.045 0 7.337-3.337 7.337-7.437 0-1.368 1.093-2.479 2.446-2.479 1.352 0 2.446 1.11 2.446 2.48 0 6.834-5.486 12.394-12.229 12.394z" fill="#573FA3"/><path fill-rule="evenodd" clip-rule="evenodd" d="M290.055 60.741c-1.353 0-2.446-1.11-2.446-2.479 0-4.1-3.292-7.437-7.337-7.437-1.353 0-2.446-1.11-2.446-2.479 0-1.368 1.093-2.479 2.446-2.479 6.743 0 12.229 5.56 12.229 12.395 0 1.368-1.094 2.479-2.446 2.479zm10.089-9.296c-6.743 0-12.229-5.56-12.229-12.395 0-1.368 1.093-2.479 2.446-2.479 1.352 0 2.445 1.11 2.445 2.48 0 4.1 3.292 7.436 7.338 7.436 1.352 0 2.446 1.11 2.446 2.479 0 1.368-1.094 2.479-2.446 2.479z" fill="#573FA3"/><g opacity=".179"><path opacity=".179" d="M1075.75 362.249c25.33 0 45.86-20.81 45.86-46.48 0-25.671-20.53-46.481-45.86-46.481-25.32 0-45.85 20.81-45.85 46.481 0 25.67 20.53 46.48 45.85 46.48z" fill="url(#paint1_linear)"/><path opacity=".179" d="M1121.61 315.386c-.04 25.411-91.76 25.243-91.71-.167.04-25.411 20.62-45.977 45.94-45.931 25.32.047 45.82 20.688 45.77 46.098z" fill="url(#paint2_linear)"/><path opacity=".179" d="M1093.64 340.868c3.8 0 6.88-3.121 6.88-6.972 0-3.851-3.08-6.972-6.88-6.972s-6.88 3.121-6.88 6.972c0 3.851 3.08 6.972 6.88 6.972z" fill="url(#paint3_linear)"/><path opacity=".179" d="M1080.34 321.346c2.03 0 3.67-1.665 3.67-3.718 0-2.054-1.64-3.719-3.67-3.719-2.03 0-3.67 1.665-3.67 3.719 0 2.053 1.64 3.718 3.67 3.718z" fill="#6D2E48"/></g><path d="M53.3 27.372c4.052 0 7.337-3.538 7.337-7.902 0-4.364-3.285-7.901-7.338-7.901-4.052 0-7.337 3.537-7.337 7.901s3.285 7.902 7.337 7.902z" fill="url(#paint4_linear)"/><path d="M909.187 295.206c4.052 0 7.337-3.537 7.337-7.901s-3.285-7.902-7.337-7.902-7.337 3.538-7.337 7.902c0 4.364 3.285 7.901 7.337 7.901z" fill="url(#paint5_linear)"/><path opacity=".7" d="M1060.25 96.222c56.23 0 101.81-46.197 101.81-103.186 0-56.988-45.58-103.186-101.81-103.186-56.22 0-101.803 46.198-101.803 103.186 0 56.989 45.583 103.186 101.803 103.186z" fill="url(#paint6_linear)"/><path opacity=".243" d="M892.369-35.465c21.251 34.47 65.903 45.045 99.733 23.62 33.828-21.427 44.028-66.74 22.778-101.211-21.253-34.47-65.905-45.045-99.735-23.618-33.83 21.426-44.027 66.739-22.776 101.21z" fill="url(#paint7_linear)"/><path opacity=".243" d="M133.651 25.752c33.379 18.754 75.438 6.53 93.941-27.303 18.502-33.832 6.442-76.462-26.937-95.216-33.38-18.754-75.439-6.53-93.942 27.303-18.502 33.833-6.442 76.462 26.938 95.216z" fill="url(#paint8_linear)"/><path opacity=".243" d="M21.338 376.172c56.796 31.91 128.359 11.111 159.842-46.456 31.482-57.566 10.962-130.101-45.834-162.011-56.796-31.909-128.36-11.11-159.842 46.456-31.483 57.567-10.962 130.102 45.834 162.011z" fill="url(#paint9_linear)"/><path clip-rule="evenodd" d="M22.5 32.097l2.316 4.179-2.316 4.187 4.131-2.348 4.123 2.348-2.308-4.187 2.308-4.18-4.123 2.34-4.131-2.34z" stroke="#D84D97" stroke-width="3.75" stroke-linecap="round" stroke-linejoin="round"/><path opacity=".752" d="M1022.65 73.23c5.57 0 10.09-4.579 10.09-10.226 0-5.647-4.52-10.226-10.09-10.226s-10.09 4.579-10.09 10.226c0 5.648 4.52 10.226 10.09 10.226z" fill="#29235C"/><path opacity=".511" d="M1188.62 341.309c13.81 0 25-11.193 25-25s-11.19-25-25-25-25 11.193-25 25 11.19 25 25 25z" fill="url(#paint10_linear)"/><defs><linearGradient id="paint0_linear" x1="600" y1="368" x2="600" y2="736" gradientUnits="userSpaceOnUse"><stop stop-color="#171544"/><stop offset="1" stop-color="#171544" stop-opacity="0"/></linearGradient><linearGradient id="paint1_linear" x1="1029.9" y1="315.77" x2="1121.62" y2="315.77" gradientUnits="userSpaceOnUse"><stop stop-color="#0B1C36"/><stop offset=".514" stop-color="#085267"/><stop offset="1" stop-color="#008289"/></linearGradient><linearGradient id="paint2_linear" x1="1038.59" y1="286.648" x2="1099.12" y2="344.794" gradientUnits="userSpaceOnUse"><stop offset=".092" stop-color="#1D314F"/><stop offset=".663" stop-color="#005570"/><stop offset="1" stop-color="#00AFD0"/></linearGradient><linearGradient id="paint3_linear" x1="1086.76" y1="333.895" x2="1100.52" y2="333.895" gradientUnits="userSpaceOnUse"><stop stop-color="#EB5673"/><stop offset=".044" stop-color="#E75473"/><stop offset="1" stop-color="#E75473"/></linearGradient><linearGradient id="paint4_linear" x1="33.989" y1="3.224" x2="69.161" y2="24.965" gradientUnits="userSpaceOnUse"><stop stop-color="#D75CAF"/><stop offset="1" stop-color="#171544"/></linearGradient><linearGradient id="paint5_linear" x1="889.876" y1="271.058" x2="925.048" y2="292.8" gradientUnits="userSpaceOnUse"><stop stop-color="#D75CAF"/><stop offset="1" stop-color="#171544"/></linearGradient><linearGradient id="paint6_linear" x1="1110.91" y1="-61.929" x2="909.744" y2="151.935" gradientUnits="userSpaceOnUse"><stop stop-color="#171544"/><stop offset="1" stop-color="#5A308D"/></linearGradient><linearGradient id="paint7_linear" x1="915.146" y1="-136.675" x2="993.606" y2="-12.793" gradientUnits="userSpaceOnUse"><stop stop-color="#18173B" stop-opacity="0"/><stop offset="1" stop-color="#539FC8"/></linearGradient><linearGradient id="paint8_linear" x1="106.714" y1="-69.465" x2="228.356" y2="-2.94" gradientUnits="userSpaceOnUse"><stop stop-color="#18173B" stop-opacity="0"/><stop offset="1" stop-color="#E859FF"/></linearGradient><linearGradient id="paint9_linear" x1="-24.495" y1="214.16" x2="182.48" y2="327.353" gradientUnits="userSpaceOnUse"><stop stop-color="#18173B" stop-opacity="0"/><stop offset="1" stop-color="#539FC8"/></linearGradient><linearGradient id="paint10_linear" x1="1225.31" y1="271.361" x2="1163.62" y2="341.309" gradientUnits="userSpaceOnUse"><stop stop-color="#9B64BF"/><stop offset="1" stop-color="#351650"/></linearGradient></defs></svg>