<svg width="24px" height="24px" viewBox="0 0 24 24" xmlns="http://www.w3.org/2000/svg">
  <path d="M16,8.00100238 L10.5,8.00100238 C9.67157288,8.00100238 9,8.67257525 9,9.50100238 L9,18.5010024 C9,19.3294295 9.67157288,20.0010024 10.5,20.0010024 L17.5,20.0010024 C18.3284271,20.0010024 19,19.3294295 19,18.5010024 L19,11.0010024 L16.5,11.0010024 C16.2238576,11.0010024 16,10.7771448 16,10.5010024 L16,8.00100238 Z M20,10.5289799 L20,18.5010024 C20,19.8817143 18.8807119,21.0010024 17.5,21.0010024 L10.5,21.0010024 C9.11928813,21.0010024 8,19.8817143 8,18.5010024 L8,9.50100238 C8,8.1202905 9.11928813,7.00100238 10.5,7.00100238 L16.4720225,7.00100238 C16.6047688,6.99258291 16.7429463,7.03684187 16.8535534,7.14744899 L19.8535534,10.147449 C19.9641605,10.2580561 20.0084195,10.3962336 20,10.5289799 Z M17,10.0010024 L18.2928932,10.0010024 L17,8.70810916 L17,10.0010024 Z M11.5,13 C11.2238576,13 11,12.7761424 11,12.5 C11,12.2238576 11.2238576,12 11.5,12 L16.5,12 C16.7761424,12 17,12.2238576 17,12.5 C17,12.7761424 16.7761424,13 16.5,13 L11.5,13 Z M11.5,15 C11.2238576,15 11,14.7761424 11,14.5 C11,14.2238576 11.2238576,14 11.5,14 L16.5,14 C16.7761424,14 17,14.2238576 17,14.5 C17,14.7761424 16.7761424,15 16.5,15 L11.5,15 Z M11.5,17 C11.2238576,17 11,16.7761424 11,16.5 C11,16.2238576 11.2238576,16 11.5,16 L15.5,16 C15.7761424,16 16,16.2238576 16,16.5 C16,16.7761424 15.7761424,17 15.5,17 L11.5,17 Z M13.5,4 C13.2238576,4 13,3.77614237 13,3.5 C13,3.22385763 13.2238576,3 13.5,3 C14.8807119,3 16,4.11928813 16,5.5 L16,7 C16,7.27614237 15.7761424,7.5 15.5,7.5 C15.2238576,7.5 15,7.27614237 15,7 L15,5.5 C15,4.67157288 14.3284271,4 13.5,4 Z M6.5,3 C6.77614237,3 7,3.22385763 7,3.5 C7,3.77614237 6.77614237,4 6.5,4 C5.67157288,4 5,4.67157288 5,5.5 L5,14.5 C5,15.3284271 5.67157288,16 6.5,16 L8,16 C8.27614237,16 8.5,16.2238576 8.5,16.5 C8.5,16.7761424 8.27614237,17 8,17 L6.5,17 C5.11928813,17 4,15.8807119 4,14.5 L4,5.5 C4,4.11928813 5.11928813,3 6.5,3 Z M9,3.5 C9,3.77614237 8.77614237,4 8.5,4 C8.22385763,4 8,3.77614237 8,3.5 C8,2.67157288 8.67157288,2 9.5,2 L10.5,2 C11.3284271,2 12,2.67157288 12,3.5 C12,3.77614237 11.7761424,4 11.5,4 C11.2238576,4 11,3.77614237 11,3.5 C11,3.22385763 10.7761424,3 10.5,3 L9.5,3 C9.22385763,3 9,3.22385763 9,3.5 Z" fill="#9C9C9C"/>
</svg>
