<svg width="214" height="217" viewBox="0 0 214 217" fill="none" xmlns="http://www.w3.org/2000/svg">
<circle cx="106.514" cy="106.514" r="105.514" fill="white" stroke="#2E6DDE" stroke-width="2" stroke-dasharray="2 2"/>
<g filter="url(#filter0_d)">
<circle cx="106.514" cy="106.514" r="70.1345" fill="white"/>
</g>
<g filter="url(#filter1_d)">
<ellipse cx="107.632" cy="107.457" rx="53.6322" ry="55.4567" fill="#FAFCFF"/>
</g>
<g clip-path="url(#clip0)">
<path d="M81.9824 120.948H83.81V122.776H81.9824V120.948Z" fill="#4680E8"/>
<path d="M85.6377 124.603H87.4653V126.431H85.6377V124.603Z" fill="#4680E8"/>
<path d="M89.293 129.172H91.1206V131H89.293V129.172Z" fill="#4680E8"/>
<path d="M131.327 120.948H133.155V122.776H131.327V120.948Z" fill="#4680E8"/>
<path d="M127.672 124.603H129.5V126.431H127.672V124.603Z" fill="#4680E8"/>
<path d="M124.017 129.172H125.845V131H124.017V129.172Z" fill="#4680E8"/>
<path d="M103 78H104.827V79.8276H103V78Z" fill="#4680E8"/>
<path d="M108.483 118.207H105.741V121.862H108.483C109.491 121.862 110.31 121.042 110.31 120.034C110.31 119.027 109.491 118.207 108.483 118.207Z" fill="#E6F2FF"/>
<path d="M105.741 112.724V116.379H108.483C109.491 116.379 110.31 115.56 110.31 114.552C110.31 113.544 109.491 112.724 108.483 112.724H105.741Z" fill="#E6F2FF"/>
<path d="M106.34 102.734C106.545 101.818 106.655 100.878 106.655 99.931H99.9091L97.4529 104.844L94.8047 98.6634L90.9193 108.377L88.0909 97.0665L86.2022 100.845H81.1152C81.2094 102.17 81.5146 103.435 81.9826 104.619V119.121H83.8102V107.8C84.3537 108.493 84.9649 109.127 85.6378 109.696V122.776H87.4654V110.983C88.0472 111.321 88.6567 111.616 89.293 111.861V127.345H91.1206V112.415C91.9509 112.598 92.8098 112.705 93.6928 112.716C95.4954 107.265 100.419 103.231 106.34 102.734Z" fill="#4680E8"/>
<path d="M88.666 91.8301L91.3204 102.45L94.7453 93.8883L97.5799 100.501L98.7788 98.1035H106.508C106.263 96.4012 105.672 94.8128 104.826 93.3948V81.6552H102.999V91.0033C102.44 90.4304 101.827 89.9141 101.171 89.4537V83.4828H99.3437V88.3815C97.6812 87.5877 95.8237 87.1379 93.861 87.1379C87.115 87.1379 81.5859 92.3896 81.1143 99.0173H85.0719L88.666 91.8301Z" fill="#4680E8"/>
<path d="M107.569 104.5C100.514 104.5 94.7756 110.238 94.7756 117.293C94.7756 124.348 100.514 130.086 107.569 130.086C114.623 130.086 120.362 124.348 120.362 117.293C120.362 110.238 114.623 104.5 107.569 104.5ZM107.569 128.259C101.522 128.259 96.6032 123.34 96.6032 117.293C96.6032 114.734 97.505 112.243 99.1443 110.277L100.547 111.448C99.1826 113.085 98.4308 115.16 98.4308 117.293C98.4308 122.332 102.53 126.431 107.569 126.431C109.702 126.431 111.777 125.679 113.413 124.315L114.584 125.718C112.619 127.357 110.128 128.259 107.569 128.259ZM112.138 114.552C112.138 115.642 111.658 116.623 110.897 117.293C111.658 117.963 112.138 118.944 112.138 120.034C112.138 122.05 110.498 123.69 108.483 123.69V125.517H106.655V123.69H103.914V110.897H106.655V109.069H108.483V110.897C110.498 110.897 112.138 112.536 112.138 114.552ZM115.993 124.309L114.59 123.139C115.954 121.502 116.707 119.426 116.707 117.293C116.707 112.254 112.607 108.155 107.569 108.155C105.436 108.155 103.361 108.907 101.724 110.271L100.553 108.869C102.518 107.229 105.01 106.328 107.57 106.328C113.616 106.328 118.535 111.246 118.535 117.293C118.534 119.852 117.632 122.344 115.993 124.309Z" fill="#FDD801"/>
<path d="M120.362 100.491V94.7254L117.216 99.4429L120.362 100.491Z" fill="#4680E8"/>
<path d="M120.362 105.137V102.418L118.031 101.64L120.362 105.137Z" fill="#4680E8"/>
<path d="M122.189 94.7254V100.491L125.335 99.4429L122.189 94.7254Z" fill="#4680E8"/>
<path d="M134.069 99.931C134.069 92.8764 128.33 87.1379 121.276 87.1379C119.311 87.1379 117.457 87.5957 115.793 88.3899V83.4828H113.965V89.447C113.308 89.9065 112.696 90.4232 112.138 90.9943V81.6552H110.31V93.3757C109.158 95.2952 108.482 97.5332 108.482 99.931C108.482 100.88 108.592 101.819 108.797 102.734C114.718 103.231 119.642 107.264 121.444 112.715C122.326 112.703 123.186 112.601 124.017 112.419V127.344H125.844V111.858C126.479 111.614 127.091 111.327 127.672 110.99V122.776H129.5V109.716C130.173 109.149 130.782 108.51 131.327 107.818V119.121H133.155V104.654C133.738 103.191 134.069 101.601 134.069 99.931ZM121.276 109.803L114.694 99.931L121.276 90.0605L127.856 99.9319L121.276 109.803Z" fill="#4680E8"/>
<path d="M122.189 105.137L124.52 101.64L122.189 102.418V105.137Z" fill="#4680E8"/>
<path d="M110.31 78H112.138V79.8276H110.31V78Z" fill="#4680E8"/>
</g>
<defs>
<filter id="filter0_d" x="0.379639" y="4.37964" width="212.269" height="212.269" filterUnits="userSpaceOnUse" color-interpolation-filters="sRGB">
<feFlood flood-opacity="0" result="BackgroundImageFix"/>
<feColorMatrix in="SourceAlpha" type="matrix" values="0 0 0 0 0 0 0 0 0 0 0 0 0 0 0 0 0 0 127 0"/>
<feOffset dy="4"/>
<feGaussianBlur stdDeviation="18"/>
<feColorMatrix type="matrix" values="0 0 0 0 0.276285 0 0 0 0 0.502529 0 0 0 0 0.908333 0 0 0 0.25 0"/>
<feBlend mode="normal" in2="BackgroundImageFix" result="effect1_dropShadow"/>
<feBlend mode="normal" in="SourceGraphic" in2="effect1_dropShadow" result="shape"/>
</filter>
<filter id="filter1_d" x="46" y="52" width="123.264" height="133.913" filterUnits="userSpaceOnUse" color-interpolation-filters="sRGB">
<feFlood flood-opacity="0" result="BackgroundImageFix"/>
<feColorMatrix in="SourceAlpha" type="matrix" values="0 0 0 0 0 0 0 0 0 0 0 0 0 0 0 0 0 0 127 0"/>
<feOffset dy="15"/>
<feGaussianBlur stdDeviation="4"/>
<feColorMatrix type="matrix" values="0 0 0 0 0 0 0 0 0 0 0 0 0 0 0 0 0 0 0.02 0"/>
<feBlend mode="normal" in2="BackgroundImageFix" result="effect1_dropShadow"/>
<feBlend mode="normal" in="SourceGraphic" in2="effect1_dropShadow" result="shape"/>
</filter>
<clipPath id="clip0">
<rect width="53" height="53" fill="white" transform="translate(81 78)"/>
</clipPath>
</defs>
</svg>
