<svg width="214" height="218" viewBox="0 0 214 218" fill="none" xmlns="http://www.w3.org/2000/svg">
<circle cx="106.656" cy="106.514" r="105.514" fill="white" stroke="#2E6DDE" stroke-width="2" stroke-dasharray="2 2"/>
<g filter="url(#filter0_d)">
<circle cx="106.655" cy="106.514" r="70.1345" fill="white"/>
</g>
<g filter="url(#filter1_d)">
<ellipse cx="106.656" cy="139.188" rx="53.6323" ry="55.4567" fill="#FAFCFF"/>
</g>
<g clip-path="url(#clip0)">
<path d="M102.327 131.566L102.329 131.562H102.325L102.327 131.566Z" fill="#4680E8"/>
<path d="M101 111.5L99 109C100.2 110.2 103.833 109.333 105.5 109L103.5 111.5L109 125L102.5 132L95.5 125L101 111.5Z" fill="#FDD801"/>
<path d="M121.862 109.156C119.504 109.156 117.31 109.865 115.467 111.072C113.251 109.681 110.781 108.549 108.11 107.871C112.354 105.016 115.276 99.3902 115.276 94.3198C115.276 87.1674 109.474 81.3665 102.325 81.3665C95.1732 81.3665 89.3732 87.1659 89.3732 94.3198C89.3732 99.3902 92.2955 105.016 96.5398 107.871C86.391 110.444 78.8735 119.254 78.8735 125.781C78.8735 129.639 90.5982 131.566 102.323 131.564L95.7542 124.997L101.285 111.627H101.229L99.0795 109.163C100.116 109.536 101.201 109.761 102.324 109.761C103.445 109.761 104.528 109.536 105.565 109.165L103.416 111.627H103.363L108.893 124.995L102.327 131.562C106.963 131.562 111.595 131.258 115.509 130.654C117.34 131.842 119.519 132.544 121.862 132.544C128.31 132.544 133.556 127.298 133.556 120.85C133.558 114.402 128.31 109.156 121.862 109.156ZM121.862 130.587C116.495 130.587 112.125 126.218 112.125 120.85C112.125 115.48 116.492 111.111 121.862 111.111C127.232 111.111 131.601 115.48 131.601 120.85C131.601 126.218 127.23 130.587 121.862 130.587Z" fill="#4680E8"/>
<path d="M122.244 115.927C122.558 115.927 122.84 115.785 123.093 115.497C123.345 115.208 123.469 114.895 123.469 114.557C123.469 114.219 123.373 113.939 123.184 113.718C122.993 113.496 122.745 113.387 122.439 113.387C122.133 113.387 121.854 113.542 121.598 113.851C121.344 114.16 121.22 114.478 121.22 114.807C121.22 115.139 121.311 115.407 121.495 115.615C121.678 115.824 121.929 115.927 122.244 115.927Z" fill="#FDD801"/>
<path d="M123.714 126.298C123.357 126.553 123.053 126.681 122.797 126.681C122.542 126.681 122.416 126.463 122.416 126.027C122.416 125.809 122.436 125.538 122.47 125.211L122.779 121.668C122.913 120.284 122.98 119.542 122.98 119.455C122.98 118.411 122.634 117.892 121.946 117.892C121.335 117.892 120.716 118.193 120.089 118.794C119.462 119.397 118.986 120.123 118.659 120.978L119.187 121.343C119.966 120.179 120.49 119.598 120.754 119.598C121.017 119.598 121.147 119.886 121.147 120.469C121.147 120.685 121.136 120.93 121.111 121.194L120.712 124.737C120.614 125.723 120.567 126.426 120.567 126.843C120.567 127.261 120.662 127.611 120.853 127.892C121.044 128.173 121.373 128.315 121.839 128.315C123.323 128.315 124.401 127.418 125.069 125.626L124.599 125.299C124.366 125.712 124.071 126.045 123.714 126.298Z" fill="#FDD801"/>
</g>
<defs>
<filter id="filter0_d" x="0.520996" y="4.37964" width="212.269" height="212.269" filterUnits="userSpaceOnUse" color-interpolation-filters="sRGB">
<feFlood flood-opacity="0" result="BackgroundImageFix"/>
<feColorMatrix in="SourceAlpha" type="matrix" values="0 0 0 0 0 0 0 0 0 0 0 0 0 0 0 0 0 0 127 0"/>
<feOffset dy="4"/>
<feGaussianBlur stdDeviation="18"/>
<feColorMatrix type="matrix" values="0 0 0 0 0.276285 0 0 0 0 0.502529 0 0 0 0 0.908333 0 0 0 0.25 0"/>
<feBlend mode="normal" in2="BackgroundImageFix" result="effect1_dropShadow"/>
<feBlend mode="normal" in="SourceGraphic" in2="effect1_dropShadow" result="shape"/>
</filter>
<filter id="filter1_d" x="45.0234" y="83.7315" width="123.265" height="133.913" filterUnits="userSpaceOnUse" color-interpolation-filters="sRGB">
<feFlood flood-opacity="0" result="BackgroundImageFix"/>
<feColorMatrix in="SourceAlpha" type="matrix" values="0 0 0 0 0 0 0 0 0 0 0 0 0 0 0 0 0 0 127 0"/>
<feOffset dy="15"/>
<feGaussianBlur stdDeviation="4"/>
<feColorMatrix type="matrix" values="0 0 0 0 0 0 0 0 0 0 0 0 0 0 0 0 0 0 0.02 0"/>
<feBlend mode="normal" in2="BackgroundImageFix" result="effect1_dropShadow"/>
<feBlend mode="normal" in="SourceGraphic" in2="effect1_dropShadow" result="shape"/>
</filter>
<clipPath id="clip0">
<rect width="54.6825" height="54.6825" fill="white" transform="translate(78.8735 79.6139)"/>
</clipPath>
</defs>
</svg>
