<svg width="231" height="44" viewBox="0 0 231 44" fill="none" xmlns="http://www.w3.org/2000/svg">
<rect width="231" height="44" rx="10" fill="#212121"/>
<g clip-path="url(#clip0)">
<path d="M149.184 17.5972C149.849 17.9997 150.412 18.5532 150.77 19.308C151.179 20.0627 151.384 20.9684 151.384 21.9747C151.384 22.981 151.179 23.8364 150.719 24.5911C150.31 25.3458 149.696 25.8993 148.928 26.2515C148.161 26.654 147.24 26.8553 146.268 26.8553C145.705 26.8553 145.194 26.7547 144.682 26.5534C144.17 26.4025 143.71 26.1006 143.352 25.7484V30.9812H140.385V17.1947H142.943L143.198 18.3016C144.324 17.396 145.552 16.9431 146.831 16.9431C147.7 16.9431 148.519 17.1444 149.184 17.5972ZM147.547 23.8364C148.058 23.3835 148.314 22.7797 148.314 22.025C148.314 21.2703 148.058 20.6665 147.598 20.1633C147.138 19.6602 146.524 19.4589 145.859 19.4589C145.296 19.4589 144.784 19.5595 144.375 19.8111C143.966 20.0124 143.659 20.3646 143.403 20.8174V23.0816C143.556 23.5345 143.863 23.8867 144.221 24.1383C144.631 24.3898 145.091 24.5408 145.654 24.5408C146.421 24.5408 147.035 24.2892 147.547 23.8364Z" fill="white"/>
<path d="M153.123 19.3573C153.584 18.6528 154.198 18.0491 155.016 17.6465C155.835 17.244 156.756 16.9924 157.779 16.9924C158.802 16.9924 159.723 17.1937 160.542 17.6465C161.309 18.0491 161.923 18.6528 162.383 19.4076C162.844 20.1623 163.048 20.9674 163.048 21.9234C163.048 22.8794 162.844 23.6844 162.383 24.4391C161.923 25.1939 161.36 25.7977 160.542 26.2002C159.774 26.6027 158.802 26.8543 157.779 26.8543C156.756 26.8543 155.835 26.653 155.016 26.2505C154.198 25.848 153.584 25.2945 153.123 24.5398C152.714 23.785 152.458 22.9297 152.458 21.9234C152.458 20.9674 152.714 20.112 153.123 19.3573ZM156.142 23.7347C156.551 24.2379 157.114 24.4391 157.779 24.4391C158.444 24.4391 159.007 24.1876 159.416 23.7347C159.825 23.2819 160.03 22.6278 160.03 21.9234C160.03 21.1686 159.825 20.5648 159.416 20.112C158.956 19.6088 158.444 19.3573 157.728 19.3573C157.063 19.3573 156.551 19.6088 156.091 20.0617C155.681 20.5648 155.477 21.1686 155.477 21.9234C155.477 22.6278 155.681 23.2316 156.142 23.7347Z" fill="white"/>
<path d="M167.857 10.0493V26.6032H164.89V10.0493H167.857Z" fill="white"/>
<path d="M180.033 17.4456L173.997 31.0308H171.132L173.383 26.1502L169.085 17.4456H172.462L174.918 22.8796L177.373 17.4456H180.033Z" fill="white"/>
<path d="M191.39 17.4453V26.6027C191.39 27.4581 191.135 28.2631 190.623 28.9676C190.111 29.672 189.446 30.2255 188.577 30.628C187.707 31.0305 186.786 31.2318 185.763 31.2318C184.995 31.2318 184.33 31.1311 183.768 30.9802C183.205 30.7789 182.744 30.5777 182.386 30.3764C181.977 30.1248 181.568 29.8229 181.107 29.4204L182.847 27.4078C183.256 27.8103 183.716 28.1122 184.126 28.3135C184.535 28.5147 185.098 28.6657 185.712 28.6657C186.479 28.6657 187.093 28.4644 187.605 28.1122C188.116 27.76 188.372 27.2065 188.372 26.5524V25.2442C188.065 25.697 187.656 26.0996 187.042 26.4015C186.428 26.7034 185.712 26.8543 184.893 26.8543C184.075 26.8543 183.256 26.653 182.54 26.2002C181.824 25.7977 181.261 25.1939 180.8 24.4392C180.391 23.6844 180.135 22.8794 180.135 21.9737C180.135 21.068 180.34 20.2126 180.8 19.4579C181.261 18.7032 181.824 18.0994 182.591 17.6465C183.307 17.1937 184.075 16.9924 184.893 16.9924C185.66 16.9924 186.326 17.0931 186.939 17.2943C187.553 17.4956 188.014 17.7975 188.321 18.1497L188.628 17.4453H191.39ZM188.372 23.0806V20.8164C188.167 20.3636 187.86 20.0114 187.4 19.7598C186.939 19.5082 186.428 19.3573 185.814 19.3573C185.098 19.3573 184.484 19.6088 183.972 20.0617C183.461 20.5145 183.205 21.1183 183.205 21.8731C183.205 22.5775 183.461 23.2316 183.972 23.7347C184.484 24.2379 185.098 24.4895 185.814 24.4895C186.991 24.4392 187.86 23.9863 188.372 23.0806Z" fill="white"/>
<path d="M193.846 19.3583C194.307 18.6035 194.921 18.0501 195.739 17.5972C196.558 17.1947 197.479 16.9431 198.502 16.9431C199.525 16.9431 200.446 17.1444 201.265 17.5972C202.032 17.9997 202.646 18.6035 203.106 19.3583C203.516 20.113 203.771 20.9181 203.771 21.874C203.771 22.83 203.567 23.6351 203.106 24.3898C202.697 25.1446 202.083 25.7484 201.265 26.1509C200.497 26.5534 199.525 26.805 198.502 26.805C197.479 26.805 196.558 26.6037 195.739 26.2012C194.921 25.7987 194.307 25.2452 193.846 24.4905C193.386 23.7357 193.181 22.8804 193.181 21.8237C193.181 20.9684 193.386 20.113 193.846 19.3583ZM196.814 23.7357C197.223 24.2389 197.786 24.4401 198.451 24.4401C199.116 24.4401 199.679 24.1886 200.088 23.7357C200.497 23.2829 200.702 22.6288 200.702 21.9244C200.702 21.1696 200.497 20.5658 200.088 20.113C199.679 19.6602 199.116 19.4086 198.451 19.4086C197.786 19.4086 197.274 19.6602 196.814 20.113C196.353 20.5658 196.149 21.2199 196.149 21.9244C196.2 22.6288 196.404 23.2326 196.814 23.7357Z" fill="white"/>
<path d="M214.259 17.7472C214.873 18.2503 215.129 18.9044 215.18 19.7095V26.6027H212.162V20.8164C212.11 19.9107 211.65 19.4579 210.78 19.4579C210.115 19.4579 209.552 19.7598 209.143 20.4139C208.734 21.068 208.529 21.8731 208.529 22.8291V26.6027H205.562V17.4453H208.273L208.478 18.9044C208.836 18.3006 209.297 17.8478 209.911 17.4956C210.524 17.1434 211.241 16.9924 212.059 16.9924C212.929 16.9924 213.696 17.244 214.259 17.7472Z" fill="white"/>
<path d="M127.697 17.2963C127.185 16.9944 126.52 16.9944 125.957 17.2963L121.967 19.6108L119.256 21.1202L115.265 23.4348C114.753 23.7367 114.088 23.7367 113.526 23.4348L110.354 21.6234C109.842 21.3215 109.484 20.768 109.484 20.1642V16.5918C109.484 15.988 109.791 15.4346 110.354 15.1327L113.475 13.3716C113.986 13.0697 114.651 13.0697 115.214 13.3716L118.335 15.1327C118.846 15.4346 119.204 15.988 119.204 16.5918V18.9064L121.916 17.3466V15.032C121.916 14.4283 121.609 13.8748 121.046 13.5729L115.265 10.2521C114.753 9.95016 114.088 9.95016 113.526 10.2521L107.642 13.5729C107.08 13.8748 106.773 14.4283 106.773 15.032V21.724C106.773 22.3278 107.08 22.8813 107.642 23.1832L113.526 26.504C114.037 26.8059 114.702 26.8059 115.265 26.504L119.256 24.2398L121.967 22.68L125.957 20.4158C126.469 20.1139 127.134 20.1139 127.697 20.4158L130.818 22.1769C131.329 22.4788 131.687 23.0322 131.687 23.636V27.2084C131.687 27.8122 131.38 28.3657 130.818 28.6676L127.697 30.479C127.185 30.7809 126.52 30.7809 125.957 30.479L122.837 28.7179C122.325 28.416 121.967 27.8625 121.967 27.2588V24.9442L119.256 26.504V28.8185C119.256 29.4223 119.563 29.9758 120.125 30.2777L126.009 33.5985C126.52 33.9004 127.185 33.9004 127.748 33.5985L133.631 30.2777C134.143 29.9758 134.501 29.4223 134.501 28.8185V22.1266C134.501 21.5228 134.194 20.9693 133.631 20.6674L127.697 17.2963Z" fill="#8247E5"/>
</g>
<path d="M15.84 27H17.286V23.982H19.41C19.49 23.982 19.596 23.978 19.728 23.97C19.864 23.962 19.988 23.95 20.1 23.934C20.844 23.818 21.396 23.508 21.756 23.004C22.12 22.496 22.302 21.886 22.302 21.174C22.302 20.458 22.122 19.848 21.762 19.344C21.406 18.836 20.852 18.524 20.1 18.408C19.988 18.388 19.866 18.376 19.734 18.372C19.602 18.364 19.494 18.36 19.41 18.36H15.84V27ZM17.286 22.632V19.716H19.35C19.43 19.716 19.52 19.72 19.62 19.728C19.72 19.736 19.812 19.75 19.896 19.77C20.136 19.83 20.324 19.938 20.46 20.094C20.6 20.246 20.698 20.418 20.754 20.61C20.814 20.802 20.844 20.99 20.844 21.174C20.844 21.358 20.814 21.546 20.754 21.738C20.698 21.93 20.6 22.102 20.46 22.254C20.324 22.406 20.136 22.512 19.896 22.572C19.812 22.596 19.72 22.612 19.62 22.62C19.52 22.628 19.43 22.632 19.35 22.632H17.286ZM27.7581 27.18C28.6221 27.18 29.3621 26.992 29.9781 26.616C30.5981 26.236 31.0721 25.708 31.4001 25.032C31.7321 24.356 31.8981 23.572 31.8981 22.68C31.8981 21.784 31.7321 21 31.4001 20.328C31.0721 19.652 30.5981 19.126 29.9781 18.75C29.3621 18.37 28.6221 18.18 27.7581 18.18C26.8981 18.18 26.1581 18.37 25.5381 18.75C24.9221 19.126 24.4481 19.652 24.1161 20.328C23.7881 21 23.6241 21.784 23.6241 22.68C23.6241 23.572 23.7881 24.356 24.1161 25.032C24.4481 25.708 24.9221 26.236 25.5381 26.616C26.1581 26.992 26.8981 27.18 27.7581 27.18ZM27.7581 25.818C26.8901 25.806 26.2381 25.516 25.8021 24.948C25.3661 24.38 25.1501 23.624 25.1541 22.68C25.1581 22.048 25.2561 21.496 25.4481 21.024C25.6401 20.552 25.9281 20.186 26.3121 19.926C26.6961 19.662 27.1781 19.534 27.7581 19.542C28.6301 19.554 29.2821 19.844 29.7141 20.412C30.1501 20.98 30.3681 21.736 30.3681 22.68C30.3681 23.308 30.2701 23.86 30.0741 24.336C29.8821 24.808 29.5921 25.174 29.2041 25.434C28.8201 25.694 28.3381 25.822 27.7581 25.818ZM35.1531 27H36.5811L38.3451 20.856L40.1091 27H41.5371L44.0571 18.36H42.5391L40.8231 24.6L39.1011 18.36L37.5831 18.372L35.8671 24.6L34.1451 18.36H32.6271L35.1531 27ZM45.6361 27H51.2161V25.644H47.0821V23.202H50.4961V21.846H47.0821V19.716H51.2161V18.36H45.6361V27ZM53.2556 27H54.7016V23.982H56.7536L58.2176 27H59.8556L58.2596 23.724C58.7516 23.504 59.1176 23.17 59.3576 22.722C59.5976 22.274 59.7176 21.758 59.7176 21.174C59.7176 20.458 59.5376 19.848 59.1776 19.344C58.8216 18.836 58.2676 18.524 57.5156 18.408C57.4036 18.388 57.2816 18.376 57.1496 18.372C57.0176 18.364 56.9096 18.36 56.8256 18.36H53.2556V27ZM54.7016 22.632V19.716H56.7656C56.8456 19.716 56.9356 19.72 57.0356 19.728C57.1356 19.736 57.2276 19.75 57.3116 19.77C57.5516 19.83 57.7396 19.938 57.8756 20.094C58.0156 20.246 58.1136 20.418 58.1696 20.61C58.2296 20.802 58.2596 20.99 58.2596 21.174C58.2596 21.358 58.2296 21.546 58.1696 21.738C58.1136 21.93 58.0156 22.102 57.8756 22.254C57.7396 22.406 57.5516 22.512 57.3116 22.572C57.2276 22.596 57.1356 22.612 57.0356 22.62C56.9356 22.628 56.8456 22.632 56.7656 22.632H54.7016ZM61.7775 27H67.3575V25.644H63.2235V23.202H66.6375V21.846H63.2235V19.716H67.3575V18.36H61.7775V27ZM69.397 27H72.151C72.219 27 72.361 26.998 72.577 26.994C72.797 26.99 73.005 26.976 73.201 26.952C73.889 26.864 74.469 26.622 74.941 26.226C75.413 25.826 75.771 25.318 76.015 24.702C76.259 24.086 76.381 23.412 76.381 22.68C76.381 21.948 76.259 21.274 76.015 20.658C75.771 20.042 75.413 19.534 74.941 19.134C74.469 18.734 73.889 18.492 73.201 18.408C73.001 18.384 72.793 18.37 72.577 18.366C72.365 18.362 72.223 18.36 72.151 18.36H69.397V27ZM70.867 25.638V19.722H72.151C72.271 19.722 72.423 19.726 72.607 19.734C72.791 19.738 72.957 19.756 73.105 19.788C73.505 19.864 73.833 20.042 74.089 20.322C74.345 20.602 74.535 20.948 74.659 21.36C74.787 21.768 74.851 22.208 74.851 22.68C74.851 23.132 74.791 23.564 74.671 23.976C74.551 24.388 74.361 24.738 74.101 25.026C73.845 25.31 73.513 25.492 73.105 25.572C72.957 25.6 72.791 25.618 72.607 25.626C72.423 25.634 72.271 25.638 72.151 25.638H70.867ZM81.4017 27H85.1757C86.0277 27 86.6737 26.764 87.1137 26.292C87.5537 25.82 87.7737 25.2 87.7737 24.432C87.7737 23.996 87.6657 23.6 87.4497 23.244C87.2377 22.888 86.9237 22.622 86.5077 22.446C86.7757 22.286 86.9857 22.06 87.1377 21.768C87.2937 21.472 87.3717 21.128 87.3717 20.736C87.3717 20.348 87.2797 19.972 87.0957 19.608C86.9157 19.244 86.6377 18.946 86.2617 18.714C85.8897 18.478 85.4117 18.36 84.8277 18.36H81.4017V27ZM82.8657 21.81V19.71H84.8097C85.1537 19.71 85.4217 19.81 85.6137 20.01C85.8057 20.21 85.9017 20.46 85.9017 20.76C85.9017 21.104 85.7957 21.366 85.5837 21.546C85.3757 21.722 85.1177 21.81 84.8097 21.81H82.8657ZM82.8657 25.638V23.16H85.0377C85.4417 23.16 85.7557 23.278 85.9797 23.514C86.2037 23.75 86.3157 24.042 86.3157 24.39C86.3157 24.774 86.1897 25.078 85.9377 25.302C85.6897 25.526 85.3757 25.638 84.9957 25.638H82.8657ZM91.3088 27H92.7728V23.46L95.7068 18.36H94.0208L92.0408 21.804L90.0548 18.36H88.3688L91.3088 23.46V27Z" fill="#CFD4DD"/>
<defs>
<clipPath id="clip0">
<rect width="108.407" height="23.8496" fill="white" transform="translate(106.772 10)"/>
</clipPath>
</defs>
</svg>
