<svg width="13" height="14" viewBox="0 0 13 14" fill="none" xmlns="http://www.w3.org/2000/svg">
<path d="M8.2929 5.06929C9.80991 6.70469 9.78909 9.32665 8.30204 10.937C8.29924 10.9403 8.29594 10.9438 8.2929 10.9471L6.58665 12.7846C5.08174 14.4052 2.63335 14.405 1.12868 12.7846C-0.376226 11.1642 -0.376226 8.52717 1.12868 6.90679L2.07082 5.89217C2.32067 5.62311 2.75094 5.80194 2.76383 6.18218C2.78029 6.66676 2.86098 7.15362 3.00987 7.62376C3.06029 7.78296 3.02427 7.95905 2.91382 8.078L2.58153 8.43584C1.86993 9.20218 1.84761 10.45 2.5522 11.2238C3.26375 12.0053 4.43329 12.0099 5.1503 11.2378L6.85655 9.40053C7.57234 8.62968 7.56934 7.38374 6.85655 6.61612C6.76258 6.51511 6.66792 6.43664 6.59398 6.38181C6.54168 6.34313 6.49849 6.29182 6.46786 6.23198C6.43724 6.17213 6.42003 6.1054 6.4176 6.03712C6.40754 5.74818 6.5026 5.45043 6.71462 5.22211L7.24919 4.64639C7.38937 4.49543 7.60928 4.47689 7.77183 4.59906C7.95799 4.73905 8.13235 4.8964 8.2929 5.06929ZM11.8713 1.21541C10.3667 -0.405029 7.91826 -0.405247 6.41336 1.21541L4.70711 3.05291C4.70406 3.05619 4.70076 3.05975 4.69796 3.06303C3.21094 4.67335 3.19009 7.29531 4.70711 8.93071C4.86765 9.1036 5.042 9.26094 5.22815 9.40091C5.3907 9.52308 5.61063 9.50452 5.75079 9.35358L6.28536 8.77786C6.49737 8.54954 6.59244 8.25179 6.58238 7.96285C6.57995 7.89457 6.56274 7.82785 6.53211 7.768C6.50149 7.70815 6.4583 7.65684 6.40599 7.61816C6.33206 7.56333 6.2374 7.48486 6.14343 7.38385C5.43064 6.61623 5.42764 5.37029 6.14343 4.59944L7.84968 2.76222C8.56668 1.99006 9.7362 1.99471 10.4478 2.77616C11.1524 3.54999 11.1301 4.79779 10.4184 5.56413L10.0862 5.92198C9.97571 6.04092 9.93968 6.21701 9.99011 6.37621C10.139 6.84636 10.2197 7.33321 10.2361 7.81779C10.2491 8.19804 10.6793 8.37686 10.9292 8.1078L11.8713 7.09319C13.3762 5.47283 13.3762 2.8358 11.8713 1.21541Z" fill="#9C9C9C"/>
</svg>
