<svg width="245" height="212" viewBox="0 0 245 212" fill="none" xmlns="http://www.w3.org/2000/svg">
<path d="M15.2911 15.2911C7.86039 22.7218 4.17308 32.3986 2.33504 46.0698C0.499999 59.7187 0.499999 77.4234 0.5 100.959V101V191V191.04C0.499997 195.72 0.499995 199.283 0.870575 202.039C1.24415 204.818 2.00253 206.852 3.57538 208.425C5.14823 209.997 7.18207 210.756 9.96066 211.129C12.717 211.5 16.2796 211.5 20.9597 211.5H21H224H224.04C228.72 211.5 232.283 211.5 235.039 211.129C237.818 210.756 239.852 209.997 241.425 208.425C242.997 206.852 243.756 204.818 244.129 202.039C244.5 199.283 244.5 195.72 244.5 191.04V191V21V20.9597C244.5 16.2796 244.5 12.717 244.129 9.96066C243.756 7.18207 242.997 5.14823 241.425 3.57538C239.852 2.00253 237.818 1.24415 235.039 0.870575C232.283 0.499995 228.72 0.499997 224.04 0.5H224H101H100.959C77.4234 0.499999 59.7187 0.499999 46.0698 2.33504C32.3986 4.17308 22.7218 7.86039 15.2911 15.2911Z" stroke="#C0C0C0"/>
</svg>
