<svg width="24" height="24" viewBox="0 0 24 24" fill="none" xmlns="http://www.w3.org/2000/svg">
<circle cx="12" cy="12" r="12" fill="#ED4E47"/>
<path d="M17.9744 13.0175C17.7927 12.9609 17.596 12.9784 17.4272 13.0662C17.2583 13.154 17.131 13.305 17.073 13.4862C16.7324 14.5278 16.0683 15.4335 15.1773 16.0715C14.2864 16.7096 13.2151 17.0467 12.1193 17.0338C10.764 17.0493 9.45786 16.5265 8.48734 15.5804C7.51682 14.6342 6.96113 13.3417 6.94212 11.9864C6.96113 10.6311 7.51682 9.33866 8.48734 8.39247C9.45786 7.44628 10.764 6.92357 12.1193 6.93898C13.3434 6.93602 14.5298 7.3621 15.4723 8.14315L13.9076 7.88357C13.8138 7.86814 13.7179 7.8714 13.6254 7.89316C13.5329 7.91493 13.4456 7.95476 13.3685 8.01038C13.2915 8.066 13.2262 8.1363 13.1764 8.21725C13.1266 8.2982 13.0933 8.38819 13.0784 8.48205C13.0629 8.57583 13.0662 8.67173 13.088 8.76424C13.1097 8.85675 13.1496 8.94405 13.2052 9.02111C13.2608 9.09817 13.3311 9.16348 13.412 9.21328C13.493 9.26307 13.583 9.29638 13.6768 9.31127L16.7341 9.81602H16.8567C16.9403 9.81592 17.0233 9.80128 17.1019 9.77275C17.1283 9.76273 17.1527 9.74808 17.174 9.72949C17.2257 9.71026 17.2743 9.68354 17.3182 9.65017L17.3831 9.57086C17.3831 9.5348 17.448 9.50596 17.4768 9.4627C17.5057 9.41943 17.4768 9.39059 17.5129 9.36175C17.5328 9.31975 17.5497 9.27638 17.5634 9.23196L18.1042 6.34771C18.1222 6.25302 18.1213 6.15571 18.1017 6.06134C18.0821 5.96697 18.0441 5.87739 17.9898 5.79771C17.9356 5.71804 17.8662 5.64982 17.7856 5.59696C17.705 5.5441 17.6148 5.50764 17.5201 5.48965C17.4254 5.47165 17.3281 5.47249 17.2337 5.4921C17.1394 5.51172 17.0498 5.54973 16.9701 5.60396C16.8092 5.7135 16.6984 5.88247 16.662 6.07371L16.4673 7.11925C15.2603 6.07316 13.7166 5.49717 12.1193 5.49686C10.3815 5.48147 8.70861 6.15612 7.46764 7.37276C6.22667 8.58939 5.51903 10.2486 5.5 11.9864C5.51903 13.7242 6.22667 15.3834 7.46764 16.6001C8.70861 17.8167 10.3815 18.4914 12.1193 18.476C13.5277 18.4976 14.9058 18.0665 16.0507 17.2461C17.1956 16.4257 18.0468 15.2594 18.4791 13.9189C18.5065 13.8265 18.515 13.7297 18.5044 13.634C18.4937 13.5383 18.4639 13.4457 18.4169 13.3617C18.3698 13.2777 18.3064 13.204 18.2304 13.1449C18.1544 13.0857 18.0674 13.0424 17.9744 13.0175Z" fill="white"/>
</svg>
