<svg width="15" height="16" viewBox="0 0 15 16" fill="none" xmlns="http://www.w3.org/2000/svg">
<path d="M13.8511 2.60715C13.8511 3.77715 12.9028 4.72564 11.7328 4.72564C10.5628 4.72564 9.61438 3.77715 9.61438 2.60715C9.61438 1.43726 10.5628 0.48877 11.7328 0.48877C12.9028 0.48877 13.8511 1.43726 13.8511 2.60715Z" fill="#9C9C9C"/>
<path d="M11.7327 5.2146C10.2948 5.2146 9.12549 4.04519 9.12549 2.60724C9.12549 1.16941 10.2948 0 11.7327 0C13.1707 0 14.34 1.16941 14.34 2.60724C14.34 4.04519 13.1707 5.2146 11.7327 5.2146ZM11.7327 0.977731C10.8339 0.977731 10.1032 1.70912 10.1032 2.60724C10.1032 3.50548 10.8339 4.23687 11.7327 4.23687C12.6316 4.23687 13.3622 3.50548 13.3622 2.60724C13.3622 1.70912 12.6316 0.977731 11.7327 0.977731Z" fill="#9C9C9C"/>
<path d="M13.8511 13.0365C13.8511 14.2064 12.9028 15.1548 11.7328 15.1548C10.5628 15.1548 9.61438 14.2064 9.61438 13.0365C9.61438 11.8665 10.5628 10.918 11.7328 10.918C12.9028 10.918 13.8511 11.8665 13.8511 13.0365Z" fill="#9C9C9C"/>
<path d="M11.7327 15.6438C10.2948 15.6438 9.12549 14.4744 9.12549 13.0366C9.12549 11.5986 10.2948 10.4292 11.7327 10.4292C13.1707 10.4292 14.34 11.5986 14.34 13.0366C14.34 14.4744 13.1707 15.6438 11.7327 15.6438ZM11.7327 11.4069C10.8339 11.4069 10.1032 12.1383 10.1032 13.0366C10.1032 13.9347 10.8339 14.6661 11.7327 14.6661C12.6316 14.6661 13.3622 13.9347 13.3622 13.0366C13.3622 12.1383 12.6316 11.4069 11.7327 11.4069Z" fill="#9C9C9C"/>
<path d="M4.72576 7.8215C4.72576 8.99151 3.77727 9.93988 2.60727 9.93988C1.43738 9.93988 0.488892 8.99151 0.488892 7.8215C0.488892 6.65149 1.43738 5.70312 2.60727 5.70312C3.77727 5.70312 4.72576 6.65149 4.72576 7.8215Z" fill="#9C9C9C"/>
<path d="M2.60724 10.4288C1.16941 10.4288 0 9.25955 0 7.8216C0 6.38365 1.16941 5.21436 2.60724 5.21436C4.04519 5.21436 5.2146 6.38365 5.2146 7.8216C5.2146 9.25955 4.04519 10.4288 2.60724 10.4288ZM2.60724 6.19209C1.7084 6.19209 0.977731 6.92335 0.977731 7.8216C0.977731 8.71984 1.7084 9.45111 2.60724 9.45111C3.5062 9.45111 4.23687 8.71984 4.23687 7.8216C4.23687 6.92335 3.5062 6.19209 2.60724 6.19209Z" fill="#9C9C9C"/>
<path d="M4.14679 7.50895C3.91991 7.50895 3.69958 7.39091 3.57963 7.17978C3.40168 6.86755 3.51125 6.46927 3.82347 6.2906L9.87163 2.84253C10.1839 2.66326 10.5821 2.77283 10.7608 3.08624C10.9388 3.39847 10.8292 3.79675 10.517 3.97542L4.46869 7.42349C4.367 7.4815 4.25624 7.50895 4.14679 7.50895Z" fill="#9C9C9C"/>
<path d="M10.1938 12.8868C10.0842 12.8868 9.97346 12.8593 9.87177 12.8013L3.8235 9.35322C3.51128 9.17526 3.40183 8.77699 3.57979 8.46405C3.75702 8.15122 4.1559 8.04106 4.46884 8.22033L10.5171 11.6684C10.8293 11.8464 10.9388 12.2446 10.7608 12.5576C10.6403 12.7687 10.42 12.8868 10.1938 12.8868Z" fill="#9C9C9C"/>
</svg>
