<svg width="214" height="217" viewBox="0 0 214 217" fill="none" xmlns="http://www.w3.org/2000/svg">
<circle cx="106.656" cy="106.514" r="105.514" fill="white" stroke="#2E6DDE" stroke-width="2" stroke-dasharray="2 2"/>
<g filter="url(#filter0_d)">
<circle cx="106.656" cy="106.514" r="70.1345" fill="white"/>
</g>
<g filter="url(#filter1_d)">
<ellipse cx="106.656" cy="106.188" rx="53.6323" ry="55.4567" fill="#FAFCFF"/>
</g>
<g clip-path="url(#clip0)">
<path d="M107.547 82.3398C108.207 82.0407 108.92 81.8868 109.641 81.8879H130.578C131.966 81.8879 133.298 82.4581 134.279 83.4731C135.261 84.4881 135.812 85.8648 135.812 87.3003V132.765C135.812 134.2 135.261 135.577 134.279 136.592C133.298 137.607 131.966 138.177 130.578 138.177H109.641C108.252 138.177 106.921 137.607 105.939 136.592C104.958 135.577 104.406 134.2 104.406 132.765V129.065" fill="#4680E8"/>
<path d="M107.547 113.28V124.105C107.547 125.54 106.995 126.917 106.014 127.932C105.032 128.947 103.701 129.517 102.312 129.517H81.375C79.9868 129.517 78.6554 128.947 77.6737 127.932C76.6921 126.917 76.1406 125.54 76.1406 124.105V78.6404C76.1406 77.2049 76.6921 75.8283 77.6737 74.8132C78.6554 73.7982 79.9868 73.228 81.375 73.228H102.312C103.701 73.228 105.032 73.7982 106.014 74.8132C106.995 75.8283 107.547 77.2049 107.547 78.6404V97.0426" fill="#4680E8"/>
<path d="M96.0312 76.4754H87.6562L86.6094 73.228H97.0781L96.0312 76.4754Z" fill="#FFDA44"/>
<path d="M124.297 85.1353H115.922L114.875 81.8878H125.344L124.297 85.1353Z" fill="#FFDA44"/>
<path d="M111.734 104.62V101.373H100.219V97.0427H111.734V93.7952L119.062 99.2076L111.734 104.62Z" fill="#FFDA44"/>
<path d="M102.312 105.703V108.95H113.828V113.28H102.312V116.527L94.9844 111.115L102.312 105.703Z" fill="#FFDA44"/>
<path d="M94.9844 125.187H88.7031C88.4255 125.187 88.1592 125.301 87.9629 125.504C87.7665 125.707 87.6562 125.983 87.6562 126.27C87.6562 126.557 87.7665 126.832 87.9629 127.035C88.1592 127.238 88.4255 127.352 88.7031 127.352H94.9844C95.262 127.352 95.5283 127.238 95.7246 127.035C95.921 126.832 96.0312 126.557 96.0312 126.27C96.0312 125.983 95.921 125.707 95.7246 125.504C95.5283 125.301 95.262 125.187 94.9844 125.187Z" fill="#FFDA44"/>
<path d="M130.578 80.8054H109.641C109.29 80.8055 108.94 80.8358 108.594 80.896V78.6404C108.592 76.9184 107.93 75.2674 106.752 74.0498C105.574 72.8322 103.978 72.1473 102.312 72.1455H81.375C79.7097 72.1473 78.113 72.8322 76.9354 74.0498C75.7579 75.2674 75.0955 76.9184 75.0938 78.6404V124.105C75.0955 125.827 75.7579 127.478 76.9354 128.695C78.113 129.913 79.7097 130.598 81.375 130.6H102.312C102.663 130.6 103.013 130.569 103.359 130.509V132.765C103.361 134.487 104.023 136.138 105.201 137.355C106.379 138.573 107.975 139.258 109.641 139.26H130.578C132.243 139.258 133.84 138.573 135.018 137.355C136.195 136.138 136.858 134.487 136.859 132.765V87.3003C136.858 85.5783 136.195 83.9273 135.018 82.7097C133.84 81.4921 132.243 80.8072 130.578 80.8054ZM123.891 82.9703L123.542 84.0528H116.677L116.328 82.9703H123.891ZM111.734 100.29H101.266V98.1251H111.734C112.012 98.1251 112.278 98.0111 112.475 97.8081C112.671 97.6051 112.781 97.3297 112.781 97.0426V95.8993L117.262 99.2076L112.781 102.516V101.373C112.781 101.085 112.671 100.81 112.475 100.607C112.278 100.404 112.012 100.29 111.734 100.29ZM95.6256 74.3104L95.2762 75.3929H88.4113L88.0619 74.3104H95.6256ZM103.986 128.073C103.459 128.313 102.889 128.436 102.312 128.435H81.375C80.2649 128.433 79.2006 127.977 78.4156 127.165C77.6306 126.353 77.189 125.253 77.1875 124.105V78.6404C77.189 77.4925 77.6306 76.392 78.4156 75.5803C79.2006 74.7686 80.2649 74.312 81.375 74.3104H85.8543L86.663 76.8178C86.7325 77.0333 86.8658 77.2208 87.0441 77.3536C87.2224 77.4864 87.4365 77.5579 87.6562 77.5579H96.0312C96.251 77.5579 96.4651 77.4864 96.6434 77.3536C96.8217 77.2208 96.955 77.0333 97.0245 76.8178L97.8332 74.3104H102.312C103.423 74.312 104.487 74.7686 105.272 75.5803C106.057 76.392 106.499 77.4925 106.5 78.6404V95.9601H100.219C99.9411 95.9601 99.6748 96.0742 99.4785 96.2772C99.2822 96.4802 99.1719 96.7555 99.1719 97.0426V101.373C99.1719 101.66 99.2822 101.935 99.4785 102.138C99.6748 102.341 99.9411 102.455 100.219 102.455H106.5V107.867H103.359V105.703C103.359 105.504 103.306 105.309 103.206 105.139C103.106 104.969 102.963 104.831 102.792 104.74C102.621 104.649 102.429 104.608 102.237 104.623C102.045 104.637 101.861 104.706 101.704 104.822L94.3759 110.234C94.2403 110.334 94.1298 110.466 94.0535 110.62C93.9772 110.773 93.9375 110.943 93.9375 111.115C93.9375 111.287 93.9772 111.457 94.0535 111.61C94.1298 111.763 94.2403 111.896 94.3759 111.996L101.704 117.408C101.861 117.524 102.045 117.593 102.237 117.607C102.429 117.621 102.621 117.581 102.792 117.49C102.963 117.399 103.106 117.261 103.206 117.091C103.306 116.921 103.359 116.726 103.359 116.527V114.362H106.5V124.105C106.5 124.947 106.262 125.772 105.816 126.477C105.369 127.182 104.733 127.737 103.986 128.073ZM102.312 110.032H112.781V112.197H102.312C102.035 112.197 101.769 112.311 101.572 112.514C101.376 112.717 101.266 112.993 101.266 113.28V114.423L96.785 111.115L101.266 107.807V108.95C101.266 109.237 101.376 109.512 101.572 109.715C101.769 109.918 102.035 110.032 102.312 110.032ZM134.766 132.765C134.764 133.913 134.323 135.013 133.538 135.825C132.753 136.636 131.688 137.093 130.578 137.095H109.641C108.53 137.093 107.466 136.636 106.681 135.825C105.896 135.013 105.455 133.913 105.453 132.765V129.73C106.408 129.16 107.201 128.34 107.752 127.352C108.304 126.365 108.594 125.245 108.594 124.105V114.362H113.828C114.106 114.362 114.372 114.248 114.568 114.045C114.765 113.842 114.875 113.567 114.875 113.28V108.95C114.875 108.663 114.765 108.388 114.568 108.185C114.372 107.982 114.106 107.867 113.828 107.867H108.594V102.455H110.688V104.62C110.687 104.819 110.74 105.014 110.841 105.184C110.941 105.354 111.084 105.492 111.255 105.583C111.426 105.674 111.618 105.714 111.81 105.7C112.002 105.685 112.186 105.617 112.343 105.501L119.671 100.088C119.807 99.9883 119.917 99.8562 119.993 99.7029C120.07 99.5497 120.109 99.3799 120.109 99.2076C120.109 99.0353 120.07 98.8655 119.993 98.7123C119.917 98.5591 119.807 98.4269 119.671 98.3267L112.343 92.9143C112.186 92.7987 112.002 92.7299 111.81 92.7155C111.618 92.7011 111.426 92.7416 111.255 92.8326C111.084 92.9237 110.941 93.0616 110.841 93.2314C110.74 93.4012 110.687 93.5963 110.688 93.7952V95.9601H108.594V83.107C108.936 83.0158 109.287 82.9699 109.641 82.9703H114.12L114.929 85.4776C114.998 85.6932 115.131 85.8806 115.31 86.0135C115.488 86.1463 115.702 86.2178 115.922 86.2178H124.297C124.517 86.2178 124.731 86.1463 124.909 86.0135C125.087 85.8806 125.221 85.6932 125.29 85.4776L126.099 82.9703H130.578C131.688 82.9718 132.753 83.4285 133.538 84.2402C134.323 85.0519 134.764 86.1524 134.766 87.3003V132.765Z" fill="#2E6DDE"/>
<path d="M123.25 133.847H116.969C116.691 133.847 116.425 133.961 116.228 134.164C116.032 134.367 115.922 134.643 115.922 134.93C115.922 135.217 116.032 135.492 116.228 135.695C116.425 135.898 116.691 136.012 116.969 136.012H123.25C123.528 136.012 123.794 135.898 123.99 135.695C124.187 135.492 124.297 135.217 124.297 134.93C124.297 134.643 124.187 134.367 123.99 134.164C123.794 133.961 123.528 133.847 123.25 133.847Z" fill="#FFDA44"/>
</g>
<defs>
<filter id="filter0_d" x="0.521484" y="4.37964" width="212.269" height="212.269" filterUnits="userSpaceOnUse" color-interpolation-filters="sRGB">
<feFlood flood-opacity="0" result="BackgroundImageFix"/>
<feColorMatrix in="SourceAlpha" type="matrix" values="0 0 0 0 0 0 0 0 0 0 0 0 0 0 0 0 0 0 127 0"/>
<feOffset dy="4"/>
<feGaussianBlur stdDeviation="18"/>
<feColorMatrix type="matrix" values="0 0 0 0 0.276285 0 0 0 0 0.502529 0 0 0 0 0.908333 0 0 0 0.25 0"/>
<feBlend mode="normal" in2="BackgroundImageFix" result="effect1_dropShadow"/>
<feBlend mode="normal" in="SourceGraphic" in2="effect1_dropShadow" result="shape"/>
</filter>
<filter id="filter1_d" x="45.0237" y="50.7315" width="123.265" height="133.913" filterUnits="userSpaceOnUse" color-interpolation-filters="sRGB">
<feFlood flood-opacity="0" result="BackgroundImageFix"/>
<feColorMatrix in="SourceAlpha" type="matrix" values="0 0 0 0 0 0 0 0 0 0 0 0 0 0 0 0 0 0 127 0"/>
<feOffset dy="15"/>
<feGaussianBlur stdDeviation="4"/>
<feColorMatrix type="matrix" values="0 0 0 0 0 0 0 0 0 0 0 0 0 0 0 0 0 0 0.02 0"/>
<feBlend mode="normal" in2="BackgroundImageFix" result="effect1_dropShadow"/>
<feBlend mode="normal" in="SourceGraphic" in2="effect1_dropShadow" result="shape"/>
</filter>
<clipPath id="clip0">
<rect width="67" height="69.2791" fill="white" transform="translate(73 71.063)"/>
</clipPath>
</defs>
</svg>
