<svg width="88" height="88" viewBox="0 0 88 88" fill="none" xmlns="http://www.w3.org/2000/svg">
<path d="M78.375 13.75H71.5V4.125C71.5 3.76033 71.3551 3.41059 71.0973 3.15273C70.8394 2.89487 70.4897 2.75 70.125 2.75H53.625C53.2603 2.75 52.9106 2.89487 52.6527 3.15273C52.3949 3.41059 52.25 3.76033 52.25 4.125V13.75H45.375V12.375C45.3728 10.5523 44.6478 8.80489 43.3589 7.51605C42.0701 6.22721 40.3227 5.50218 38.5 5.5H22C20.1773 5.50218 18.4299 6.22721 17.1411 7.51605C15.8522 8.80489 15.1272 10.5523 15.125 12.375V13.75H9.625C7.80231 13.7522 6.05489 14.4772 4.76605 15.7661C3.47721 17.0549 2.75218 18.8023 2.75 20.625V78.375C2.75218 80.1977 3.47721 81.9451 4.76605 83.2339C6.05489 84.5228 7.80231 85.2478 9.625 85.25H78.375C80.1977 85.2478 81.9451 84.5228 83.2339 83.2339C84.5228 81.9451 85.2478 80.1977 85.25 78.375V20.625C85.2478 18.8023 84.5228 17.0549 83.2339 15.7661C81.9451 14.4772 80.1977 13.7522 78.375 13.75ZM78.375 16.5C79.469 16.5 80.5182 16.9346 81.2918 17.7082C82.0654 18.4818 82.5 19.531 82.5 20.625V28.9107C81.317 28.0008 79.8675 27.5051 78.375 27.5H77V20.625C77 20.2603 76.8551 19.9106 76.5973 19.6527C76.3394 19.3949 75.9897 19.25 75.625 19.25H71.5V16.5H78.375ZM71.5 27.5V22H74.25V27.5H71.5ZM55 5.5H68.75V37.125C68.75 37.4897 68.8949 37.8394 69.1527 38.0973C69.4106 38.3551 69.7603 38.5 70.125 38.5H75.3761L61.798 54.2616L48.3546 38.5H53.625C53.9897 38.5 54.3394 38.3551 54.5973 38.0973C54.8551 37.8394 55 37.4897 55 37.125V5.5ZM52.25 27.5H13.75V22H52.25V27.5ZM9.625 16.5H16.5C16.8647 16.5 17.2144 16.3551 17.4723 16.0973C17.7301 15.8394 17.875 15.4897 17.875 15.125V12.375C17.875 11.281 18.3096 10.2318 19.0832 9.45818C19.8568 8.6846 20.906 8.25 22 8.25H38.5C39.594 8.25 40.6432 8.6846 41.4168 9.45818C42.1904 10.2318 42.625 11.281 42.625 12.375V15.125C42.625 15.4897 42.7699 15.8394 43.0277 16.0973C43.2856 16.3551 43.6353 16.5 44 16.5H52.25V19.25H12.375C12.0103 19.25 11.6606 19.3949 11.4027 19.6527C11.1449 19.9106 11 20.2603 11 20.625V27.5H9.625C8.13248 27.5051 6.68303 28.0008 5.5 28.9107V20.625C5.5 19.531 5.9346 18.4818 6.70818 17.7082C7.48177 16.9346 8.53098 16.5 9.625 16.5ZM82.5 78.375C82.5 79.469 82.0654 80.5182 81.2918 81.2918C80.5182 82.0654 79.469 82.5 78.375 82.5H9.625C8.53098 82.5 7.48177 82.0654 6.70818 81.2918C5.9346 80.5182 5.5 79.469 5.5 78.375V34.375C5.5 33.281 5.9346 32.2318 6.70818 31.4582C7.48177 30.6846 8.53098 30.25 9.625 30.25H52.25V35.75H45.375C45.1123 35.7499 44.8551 35.8252 44.6337 35.9667C44.4124 36.1083 44.2363 36.3103 44.1262 36.5488C44.0162 36.7874 43.9767 37.0525 44.0126 37.3127C44.0485 37.573 44.1581 37.8175 44.3286 38.0174L60.7461 57.2674C60.878 57.4155 61.0389 57.5348 61.219 57.6178C61.399 57.7009 61.5943 57.7459 61.7925 57.75C61.9903 57.7501 62.1858 57.7076 62.3657 57.6252C62.5456 57.5429 62.7056 57.4227 62.8348 57.2729L79.4173 38.0229C79.5892 37.8234 79.7003 37.5787 79.7373 37.318C79.7742 37.0572 79.7355 36.7913 79.6257 36.5519C79.516 36.3125 79.3397 36.1096 79.118 35.9675C78.8963 35.8253 78.6384 35.7498 78.375 35.75H71.5V30.25H78.375C79.469 30.25 80.5182 30.6846 81.2918 31.4582C82.0654 32.2318 82.5 33.281 82.5 34.375V78.375Z" fill="#084BC3"/>
<path d="M45.375 77H12.375C12.0103 77 11.6606 76.8551 11.4027 76.5973C11.1449 76.3394 11 75.9897 11 75.625V59.125C11 58.7603 11.1449 58.4106 11.4027 58.1527C11.6606 57.8949 12.0103 57.75 12.375 57.75H45.375C45.7397 57.75 46.0894 57.8949 46.3473 58.1527C46.6051 58.4106 46.75 58.7603 46.75 59.125V75.625C46.75 75.9897 46.6051 76.3394 46.3473 76.5973C46.0894 76.8551 45.7397 77 45.375 77ZM13.75 74.25H44V60.5H13.75V74.25Z" fill="#084BC3"/>
<path d="M19.25 66H17.875C17.5103 66 17.1606 65.8551 16.9027 65.5973C16.6449 65.3394 16.5 64.9897 16.5 64.625C16.5 64.2603 16.6449 63.9106 16.9027 63.6527C17.1606 63.3949 17.5103 63.25 17.875 63.25H19.25C19.6147 63.25 19.9644 63.3949 20.2223 63.6527C20.4801 63.9106 20.625 64.2603 20.625 64.625C20.625 64.9897 20.4801 65.3394 20.2223 65.5973C19.9644 65.8551 19.6147 66 19.25 66Z" fill="#084BC3"/>
<path d="M39.875 66H24.75C24.3853 66 24.0356 65.8551 23.7777 65.5973C23.5199 65.3394 23.375 64.9897 23.375 64.625C23.375 64.2603 23.5199 63.9106 23.7777 63.6527C24.0356 63.3949 24.3853 63.25 24.75 63.25H39.875C40.2397 63.25 40.5894 63.3949 40.8473 63.6527C41.1051 63.9106 41.25 64.2603 41.25 64.625C41.25 64.9897 41.1051 65.3394 40.8473 65.5973C40.5894 65.8551 40.2397 66 39.875 66Z" fill="#084BC3"/>
<path d="M19.25 71.5H17.875C17.5103 71.5 17.1606 71.3551 16.9027 71.0973C16.6449 70.8394 16.5 70.4897 16.5 70.125C16.5 69.7603 16.6449 69.4106 16.9027 69.1527C17.1606 68.8949 17.5103 68.75 17.875 68.75H19.25C19.6147 68.75 19.9644 68.8949 20.2223 69.1527C20.4801 69.4106 20.625 69.7603 20.625 70.125C20.625 70.4897 20.4801 70.8394 20.2223 71.0973C19.9644 71.3551 19.6147 71.5 19.25 71.5Z" fill="#084BC3"/>
<path d="M39.875 71.5H24.75C24.3853 71.5 24.0356 71.3551 23.7777 71.0973C23.5199 70.8394 23.375 70.4897 23.375 70.125C23.375 69.7603 23.5199 69.4106 23.7777 69.1527C24.0356 68.8949 24.3853 68.75 24.75 68.75H39.875C40.2397 68.75 40.5894 68.8949 40.8473 69.1527C41.1051 69.4106 41.25 69.7603 41.25 70.125C41.25 70.4897 41.1051 70.8394 40.8473 71.0973C40.5894 71.3551 40.2397 71.5 39.875 71.5Z" fill="#084BC3"/>
</svg>
