<svg width="20" height="20" viewBox="0 0 20 20" fill="none" xmlns="http://www.w3.org/2000/svg">
<g clip-path="url(#clip0)">
<path d="M15.7433 9.67583C14.4416 7.53083 12.295 6.25 9.99997 6.25C7.70497 6.25 5.55831 7.53083 4.25664 9.67583C4.13581 9.875 4.13581 10.125 4.25664 10.3233C5.55831 12.4692 7.70497 13.75 9.99997 13.75C12.295 13.75 14.4416 12.4692 15.7433 10.3242C15.8633 10.125 15.8633 9.875 15.7433 9.67583ZM9.99997 11.6667C9.08081 11.6667 8.33331 10.9192 8.33331 10C8.33331 9.08083 9.08081 8.33333 9.99997 8.33333C10.9191 8.33333 11.6666 9.08083 11.6666 10C11.6666 10.9192 10.9191 11.6667 9.99997 11.6667Z" fill="#151202"/>
<path d="M10.0013 20C9.54047 20 9.16797 19.6267 9.16797 19.1667V17.1742C9.16797 16.7142 9.54047 16.3408 10.0013 16.3408C10.4621 16.3408 10.8346 16.7142 10.8346 17.1742V19.1667C10.8346 19.6267 10.4621 20 10.0013 20Z" fill="#151202"/>
<path d="M10.0013 3.65917C9.54047 3.65917 9.16797 3.28583 9.16797 2.82583V0.833333C9.16797 0.373333 9.54047 0 10.0013 0C10.4621 0 10.8346 0.373333 10.8346 0.833333V2.82583C10.8346 3.28583 10.4621 3.65917 10.0013 3.65917Z" fill="#151202"/>
<path d="M2.82667 10.8334H0.833333C0.3725 10.8334 0 10.4601 0 10.0001C0 9.54008 0.3725 9.16675 0.833333 9.16675H2.82667C3.2875 9.16675 3.66 9.54008 3.66 10.0001C3.66 10.4601 3.28667 10.8334 2.82667 10.8334Z" fill="#151202"/>
<path d="M19.1665 10.8334H17.1732C16.7123 10.8334 16.3398 10.4601 16.3398 10.0001C16.3398 9.54008 16.7123 9.16675 17.1732 9.16675H19.1665C19.6274 9.16675 19.9999 9.54008 19.9999 10.0001C19.9999 10.4601 19.6274 10.8334 19.1665 10.8334Z" fill="#151202"/>
<path d="M9.9987 18.5416C5.2887 18.5416 1.45703 14.7099 1.45703 9.99992C1.45703 5.28992 5.2887 1.45825 9.9987 1.45825C14.7087 1.45825 18.5404 5.28992 18.5404 9.99992C18.5404 14.7099 14.7087 18.5416 9.9987 18.5416ZM9.9987 3.12492C6.20786 3.12492 3.1237 6.20908 3.1237 9.99992C3.1237 13.7908 6.20786 16.8749 9.9987 16.8749C13.7895 16.8749 16.8737 13.7908 16.8737 9.99992C16.8737 6.20908 13.7895 3.12492 9.9987 3.12492Z" fill="#151202"/>
</g>
<defs>
<clipPath id="clip0">
<rect width="20" height="20" fill="white"/>
</clipPath>
</defs>
</svg>
