<svg width="19" height="19" viewBox="0 0 19 19" fill="none" xmlns="http://www.w3.org/2000/svg">
<path d="M3.86718 4.92188C3.77395 4.92188 3.68452 4.95891 3.61859 5.02484C3.55266 5.09077 3.51562 5.1802 3.51562 5.27343V6.67967H4.21874V5.62499H5.27342V4.92188H3.86718Z" fill="#57A4FF"/>
<path d="M3.51562 7.38281H4.21874V8.08593H3.51562V7.38281Z" fill="#57A4FF"/>
<path d="M15.5999 8.57923V3.89965C15.5991 3.71419 15.541 3.53349 15.4336 3.38229C15.3262 3.23108 15.1747 3.11674 14.9999 3.05492V2.09981C14.9999 1.86114 14.9051 1.63224 14.7363 1.46347C14.5675 1.2947 14.3386 1.19989 14.0999 1.19989H5.69995C5.62039 1.19989 5.54408 1.16829 5.48782 1.11203C5.43156 1.05578 5.39995 0.979477 5.39995 0.899919C5.39995 0.661245 5.30513 0.432348 5.13635 0.26358C4.96757 0.0948126 4.73866 0 4.49996 0H0.899992C0.6613 0 0.432383 0.0948126 0.263602 0.26358C0.0948204 0.432348 0 0.661245 0 0.899919V12.2989C0 12.5376 0.0948204 12.7665 0.263602 12.9352C0.432383 13.104 0.6613 13.1988 0.899992 13.1988H7.81523C7.86588 14.0721 8.14048 14.9176 8.61259 15.6541C9.0847 16.3905 9.73844 16.993 10.5109 17.4036C11.2833 17.8142 12.1485 18.0191 13.023 17.9986C13.8976 17.9781 14.7522 17.7328 15.5045 17.2863C16.2568 16.8399 16.8815 16.2073 17.3185 15.4496C17.7555 14.6918 17.9901 13.8343 17.9997 12.9596C18.0093 12.0849 17.7935 11.2225 17.3732 10.4553C16.9529 9.68811 16.3422 9.04203 15.5999 8.57923ZM0.599995 12.2989V0.899919C0.599995 0.820361 0.631602 0.744062 0.687862 0.687806C0.744123 0.63155 0.820428 0.599946 0.899992 0.599946H4.49996C4.57953 0.599946 4.65583 0.63155 4.71209 0.687806C4.76835 0.744062 4.79996 0.820361 4.79996 0.899919C4.79996 1.13859 4.89478 1.36749 5.06356 1.53626C5.23234 1.70502 5.46126 1.79984 5.69995 1.79984H14.0999C14.1794 1.79984 14.2558 1.83144 14.312 1.8877C14.3683 1.94395 14.3999 2.02025 14.3999 2.09981V2.99973H3.29997C2.9023 3.00021 2.52105 3.15838 2.23985 3.43956C1.95865 3.72073 1.80046 4.10195 1.79998 4.49959V11.6989C1.80109 12.0246 1.90924 12.3408 2.10778 12.5989H0.899992C0.820428 12.5989 0.744123 12.5673 0.687862 12.511C0.631602 12.4547 0.599995 12.3784 0.599995 12.2989ZM2.39998 11.6989V4.49959C2.39998 4.26092 2.4948 4.03202 2.66358 3.86326C2.83236 3.69449 3.06128 3.59968 3.29997 3.59968H14.6999C14.7794 3.59968 14.8557 3.63128 14.912 3.68754C14.9683 3.74379 14.9999 3.82009 14.9999 3.89965V8.25705C14.2473 7.91407 13.4224 7.75986 12.5967 7.80778C11.771 7.85571 10.9695 8.10434 10.2617 8.5321C9.55383 8.95986 8.96104 9.55384 8.53473 10.2625C8.10841 10.9712 7.86144 11.7732 7.81523 12.5989H3.29997C3.06128 12.5989 2.83236 12.504 2.66358 12.3353C2.4948 12.1665 2.39998 11.9376 2.39998 11.6989ZM12.8999 17.3984C12.0099 17.3984 11.1399 17.1345 10.3998 16.6401C9.65983 16.1457 9.08306 15.4429 8.74247 14.6208C8.40188 13.7986 8.31276 12.8938 8.48639 12.021C8.66003 11.1482 9.08861 10.3464 9.71794 9.71714C10.3473 9.08786 11.1491 8.65932 12.022 8.4857C12.8949 8.31208 13.7997 8.40119 14.622 8.74175C15.4442 9.08232 16.147 9.65904 16.6415 10.399C17.1359 11.139 17.3999 12.0089 17.3999 12.8988C17.3985 14.0918 16.924 15.2355 16.0804 16.079C15.2367 16.9226 14.0929 17.3971 12.8999 17.3984Z" fill="#2E6DDE"/>
<path d="M13.2113 11.1035C13.1559 11.0388 13.0802 11 12.9986 11C12.917 11 12.8412 11.0388 12.7859 11.1035L11.0782 13.1377C10.9674 13.2671 10.9762 13.4741 11.0928 13.5938C11.2094 13.7167 11.3987 13.7069 11.5094 13.5777L12.7159 12.1449V15.6766C12.7159 15.8545 12.847 16 13.0073 16C13.1675 16 13.2987 15.8545 13.2987 15.6766V12.1449L14.4963 13.5777C14.5547 13.6455 14.6304 13.6811 14.7091 13.6811C14.779 13.6811 14.849 13.652 14.9072 13.5938C15.0238 13.4709 15.0326 13.2671 14.9218 13.1377L13.2113 11.1035Z" fill="#2E6DDE"/>
</svg>
