<svg width="41" height="41" viewBox="0 0 41 41" fill="none" xmlns="http://www.w3.org/2000/svg">
<path d="M21 21.0127C18.3647 21.0127 16.2206 23.1567 16.2206 25.792C16.2206 25.9067 16.3137 25.9998 16.4284 25.9998H25.5715C25.6862 25.9998 25.7793 25.9067 25.7793 25.792C25.7793 23.1567 23.6352 21.0127 21 21.0127Z" fill="#4680E8"/>
<path d="M20.9999 20.5715C22.2623 20.5715 23.2857 19.5481 23.2857 18.2858C23.2857 17.0234 22.2623 16 20.9999 16C19.7375 16 18.7142 17.0234 18.7142 18.2858C18.7142 19.5481 19.7375 20.5715 20.9999 20.5715Z" fill="#4680E8"/>
<path d="M30.1862 11.8138C27.7268 9.35439 24.4644 8 20.9999 8C17.5274 8 14.2629 9.35225 11.8075 11.8076C9.3522 14.263 8 17.5276 8 21C8 24.3549 9.28172 27.5344 11.5599 29.9375H10.4375C9.98875 29.9375 9.625 30.3013 9.625 30.75C9.625 31.1987 9.98875 31.5625 10.4375 31.5625H13.6875C14.1363 31.5625 14.5 31.1987 14.5 30.75V27.5C14.5 27.0513 14.1363 26.6875 13.6875 26.6875C13.2387 26.6875 12.875 27.0513 12.875 27.5V28.9607C10.7971 26.8421 9.625 24.0011 9.625 21C9.625 14.7279 14.7278 9.62505 20.9999 9.625C24.0303 9.625 26.8847 10.8104 29.0371 12.9629C31.1896 15.1153 32.375 17.9697 32.375 21.0001C32.3749 27.2722 27.2721 32.375 21 32.375C20.5512 32.375 20.1875 32.7388 20.1875 33.1875C20.1875 33.6362 20.5512 34 21 34C24.4725 34 27.737 32.6478 30.1924 30.1925C32.6478 27.7371 33.9999 24.4725 34 21.0001C34.0001 17.5356 32.6456 14.2732 30.1862 11.8138V11.8138Z" fill="#4680E8"/>
</svg>
