<svg width="20" height="20" viewBox="0 0 20 20" fill="none" xmlns="http://www.w3.org/2000/svg">
<path d="M19.6552 2.06885H0.344828C0.154483 2.06885 0 2.22299 0 2.41368V17.5861C0 17.7768 0.154483 17.9309 0.344828 17.9309H19.6552C19.8455 17.9309 20 17.7768 20 17.5861V2.41368C20 2.22299 19.8455 2.06885 19.6552 2.06885ZM3.44828 17.2413H0.689655V14.1378H3.44828V17.2413ZM3.44828 13.4482H0.689655V10.3447H3.44828V13.4482ZM3.44828 9.65505H0.689655V6.55161H3.44828V9.65505ZM3.44828 5.86195H0.689655V2.7585H3.44828V5.86195ZM12.599 10.2909L8.80586 12.7047C8.74966 12.7402 8.68517 12.7585 8.62069 12.7585C8.56345 12.7585 8.50655 12.7444 8.45483 12.7161C8.34448 12.6554 8.27586 12.5395 8.27586 12.4137V7.58609C8.27586 7.46023 8.34448 7.34436 8.45483 7.28367C8.56517 7.22333 8.69966 7.22781 8.80621 7.29505L12.5993 9.70885C12.6983 9.7723 12.7586 9.88195 12.7586 9.99988C12.7586 10.1178 12.6983 10.2275 12.599 10.2909ZM19.3103 17.2413H16.5517V14.1378H19.3103V17.2413ZM19.3103 13.4482H16.5517V10.3447H19.3103V13.4482ZM19.3103 9.65505H16.5517V6.55161H19.3103V9.65505ZM19.3103 5.86195H16.5517V2.7585H19.3103V5.86195Z" fill="#C53030"/>
</svg>
