<svg width="20" height="20" viewBox="0 0 20 20" fill="none" xmlns="http://www.w3.org/2000/svg">
<path d="M7.8125 12.5H8.4375V13.125H7.8125V12.5ZM14.6875 4.375H16.4331L13.75 1.69191V3.4375C13.7503 3.68605 13.8491 3.92435 14.0249 4.1001C14.2007 4.27586 14.4389 4.37472 14.6875 4.375ZM7.89301 13.75L7.59848 14.7971C7.59095 14.8238 7.57989 14.8495 7.56559 14.8734C7.52292 14.9428 7.50022 15.0227 7.5 15.1042C7.5 15.3914 7.78039 15.625 8.125 15.625C8.46961 15.625 8.75 15.3914 8.75 15.1042C8.74977 15.0227 8.72708 14.9428 8.68441 14.8733C8.67011 14.8495 8.65905 14.8238 8.65152 14.7971L8.35699 13.75H7.89301ZM13.125 3.4375V1.25H8.4375V2.5H9.0625C9.14538 2.5 9.22487 2.53292 9.28347 2.59153C9.34208 2.65013 9.375 2.72962 9.375 2.8125C9.375 2.89538 9.34208 2.97487 9.28347 3.03347C9.22487 3.09208 9.14538 3.125 9.0625 3.125H8.4375V4.375H9.0625C9.14538 4.375 9.22487 4.40792 9.28347 4.46653C9.34208 4.52513 9.375 4.60462 9.375 4.6875C9.375 4.77038 9.34208 4.84987 9.28347 4.90847C9.22487 4.96708 9.14538 5 9.0625 5H8.4375V6.25H9.0625C9.14538 6.25 9.22487 6.28292 9.28347 6.34153C9.34208 6.40013 9.375 6.47962 9.375 6.5625C9.375 6.64538 9.34208 6.72487 9.28347 6.78347C9.22487 6.84208 9.14538 6.875 9.0625 6.875H8.4375V8.125H9.0625C9.14538 8.125 9.22487 8.15792 9.28347 8.21653C9.34208 8.27513 9.375 8.35462 9.375 8.4375C9.375 8.52038 9.34208 8.59987 9.28347 8.65847C9.22487 8.71708 9.14538 8.75 9.0625 8.75H8.4375V10H9.0625C9.14538 10 9.22487 10.0329 9.28347 10.0915C9.34208 10.1501 9.375 10.2296 9.375 10.3125C9.375 10.3954 9.34208 10.4749 9.28347 10.5335C9.22487 10.5921 9.14538 10.625 9.0625 10.625H8.4375V11.875H8.75C8.83288 11.875 8.91237 11.9079 8.97097 11.9665C9.02958 12.0251 9.0625 12.1046 9.0625 12.1875V13.4375C9.06251 13.5166 9.0324 13.5927 8.97828 13.6504L9.24277 14.5909C9.32911 14.7482 9.37458 14.9247 9.375 15.1042C9.375 15.736 8.81426 16.25 8.125 16.25C7.43574 16.25 6.875 15.736 6.875 15.1042C6.87542 14.9247 6.92088 14.7482 7.00723 14.5909L7.27172 13.6504C7.2176 13.5927 7.18749 13.5166 7.1875 13.4375V12.1875C7.1875 12.1046 7.22042 12.0251 7.27903 11.9665C7.33763 11.9079 7.41712 11.875 7.5 11.875H7.8125V10.625H7.1875C7.10462 10.625 7.02513 10.5921 6.96653 10.5335C6.90792 10.4749 6.875 10.3954 6.875 10.3125C6.875 10.2296 6.90792 10.1501 6.96653 10.0915C7.02513 10.0329 7.10462 10 7.1875 10H7.8125V8.75H7.1875C7.10462 8.75 7.02513 8.71708 6.96653 8.65847C6.90792 8.59987 6.875 8.52038 6.875 8.4375C6.875 8.35462 6.90792 8.27513 6.96653 8.21653C7.02513 8.15792 7.10462 8.125 7.1875 8.125H7.8125V6.875H7.1875C7.10462 6.875 7.02513 6.84208 6.96653 6.78347C6.90792 6.72487 6.875 6.64538 6.875 6.5625C6.875 6.47962 6.90792 6.40013 6.96653 6.34153C7.02513 6.28292 7.10462 6.25 7.1875 6.25H7.8125V5H7.1875C7.10462 5 7.02513 4.96708 6.96653 4.90847C6.90792 4.84987 6.875 4.77038 6.875 4.6875C6.875 4.60462 6.90792 4.52513 6.96653 4.46653C7.02513 4.40792 7.10462 4.375 7.1875 4.375H7.8125V3.125H7.1875C7.10462 3.125 7.02513 3.09208 6.96653 3.03347C6.90792 2.97487 6.875 2.89538 6.875 2.8125C6.875 2.72962 6.90792 2.65013 6.96653 2.59153C7.02513 2.53292 7.10462 2.5 7.1875 2.5H7.8125V1.25H4.0625C3.81395 1.25029 3.57566 1.34915 3.39991 1.52491C3.22415 1.70066 3.12529 1.93895 3.125 2.1875V17.8125C3.12529 18.0611 3.22415 18.2993 3.39991 18.4751C3.57566 18.6508 3.81395 18.7497 4.0625 18.75H15.9375C16.1861 18.7497 16.4243 18.6508 16.6001 18.4751C16.7758 18.2993 16.8747 18.0611 16.875 17.8125V5H14.6875C14.2732 4.99953 13.8761 4.83477 13.5832 4.54184C13.2902 4.24892 13.1255 3.85176 13.125 3.4375Z" fill="#605E62"/>
</svg>
